<?xml version="1.0" encoding="utf-8"?>
<!-- Generator: Adobe Illustrator 21.0.0, SVG Export Plug-In . SVG Version: 6.00 Build 0)  -->
<svg version="1.1" id="Ebene_1" xmlns="http://www.w3.org/2000/svg" xmlns:xlink="http://www.w3.org/1999/xlink" x="0px" y="0px"
	 viewBox="0 0 768 1192" style="enable-background:new 0 0 768 1192;" xml:space="preserve">
<style type="text/css">
	.st0{fill:none;}
	.st1{fill:#F6D2A2;}
	.st2{fill:#6BD7E5;}
	.st3{fill:#5EC4CC;}
	.st4{fill:#FFFFFF;}
	.st5{fill:#FBC500;}
	.st6{fill:#E8B30C;}
	.st7{fill:#CCCCCC;}
	.st8{fill:#D8B58B;}
	.st9{fill:#BCBCBC;}
	.st10{fill:#DBDBDB;}
	.st11{fill:#E0E0E0;}
</style>
<g>
	<path class="st0" d="M700.8,580.3c2.4-1.8,4.5-3.7,6.4-5.4c-0.5,0-0.9-0.1-1.4-0.2c-1.8-0.4-3.5-1.3-4.8-2.5L700.8,580.3z"/>
	<path class="st0" d="M77.3,569.3l0.9,1.2l0-0.4C77.9,569.8,77.6,569.6,77.3,569.3z"/>
	<path class="st1" d="M531.5,1123.9c10.4,2.4,43.8,9.9,64.3,11.2c-0.1-0.1-0.2-0.3-0.4-0.4c-5.4-5.7-31.1-15.7-50.3-18.5
		C540.6,1118.9,536.1,1121.4,531.5,1123.9z"/>
	<path class="st1" d="M222.8,1109.7c-16.1,4.8-34.1,17.5-38,21.8c-1.1,1.2-1.3,2-1.3,2.3c0.1,0.3,0.9,1.1,2.9,1.8
		c11.1-0.7,42.1-13.6,50.5-17.2C232.2,1115.6,227.5,1112.7,222.8,1109.7z"/>
	<path class="st1" d="M736.3,723.9c-7.4-12.2-26.3-26.1-38.8-34.4L697,707C705.3,711.2,728.2,722.6,736.3,723.9
		C736.4,723.9,736.3,723.9,736.3,723.9z"/>
	<path class="st2" d="M693.2,585.8l0.7-23.3c-5.6,4-11,9.3-14.9,13.4c1,0.9,1.9,1.8,2.8,2.9c2.7,3.1,4.9,6.6,6.5,10.1
		C690,587.8,691.6,586.8,693.2,585.8z"/>
	<path class="st2" d="M496.4,758.2l-3.7-7.4l-2.8-0.4c-2.7-0.4-16.5-2.8-22.3-13c-1.7-3-3.2-7.6-2-13.4l-41.7,15.7
		c3.3,5.6,5.1,12,5.5,17.8c0.7,9.5-2.1,17.2-7.5,20.7l-0.8,1l7,12.5C447.8,775.9,471.1,764.3,496.4,758.2z"/>
	<path class="st2" d="M619.8,634.7c0.2-3.1-0.4-7-2.4-9.1c-1.2,5-0.5,9.4,0.1,11.6c0.1,0.1,0.1,0.1,0.2,0.2
		C618.8,636.1,619.5,635.2,619.8,634.7z"/>
	<path class="st2" d="M598.4,646.2l-0.2-0.5c-0.2-0.6-2.7-7.4-2.4-16.7c-11.3,6.5-24.2,17.8-32.5,26c6.4,1.8,10.9,5.5,13.5,10.9
		c0.1,0.3,0.2,0.5,0.4,0.8c5.8-3.1,12.3-7,18.6-11.2c2.2-1.5,4.2-2.9,6.1-4.3c-1.3-1.4-2.3-2.8-3-4L598.4,646.2z"/>
	<path class="st2" d="M534.7,677.7c-1.4,0.4-2.7,1-4,1.5c3,3.7,4.5,6.5,4.5,6.6c0,0.1,0.1,0.2,0.1,0.3l7,16.6
		c2.7-3.4,5.1-6.7,7.2-9.8c-1.8-0.7-3.6-1.7-5.2-2.8C539.4,686.5,536.5,681.7,534.7,677.7z"/>
	<path class="st2" d="M652.8,608.5c-3-4.2-3.9-9.1-3.6-13.7c-4.7,3-10.8,7.5-18.7,14.1c0,0,0,0,0,0c6.7,5.6,10.4,14.7,10.4,24.8
		c6.8-5.3,14.1-12.7,19.8-19.1C656.8,613.1,654.3,610.7,652.8,608.5z"/>
	<path class="st2" d="M311.8,1100.7c68.9,26.1,134.5,15.3,178.7,0.8c-74.7-21-129.6-89.6-129.6-170.9c0-32.5,8.8-62.9,24.1-89.2
		l-26.1-52.5c-13-4.2-32.7-11.6-41.3-16.4c-7.3-4.1-10.8-10.4-12.2-17.5c-12.9-1.9-28-6.7-38.5-11.3c-19.7-8.6-24.3-11.3-30.7-23.7
		c-3.6-0.9-12.1-5.7-51.4-34.3c-1.2-0.9-2.2-1.8-3.1-2.7c-3.6-0.2-7.1-1.1-10.3-2.6c-8.9-4.2-28.8-21.3-36.9-28.5
		c-1.2,0-4.9,0.1-6.1,0.1c-5.7,0-12.1-0.8-20.3-6.4c-0.2-0.1-11.3-8.5-21-18.3l2.6,109.2c7-4.1,11.7-6.3,12-6.4
		c1.9-0.9,4.1,0,4.9,1.8c0.9,1.9,0,4.1-1.8,4.9c0,0-0.4,0.2-0.9,0.4l5.9,35.5c1-0.2,2,0.1,2.9,0.7c1.6,1.3,1.9,3.6,0.7,5.2
		c-2.2,2.8-11.1,8.7-22.3,14.4l1.7,73.4c0,6.1,0.2,12.2,0.6,18.2C108.4,935.4,157.6,1042.2,311.8,1100.7z"/>
	<path class="st2" d="M345.2,727.3c0,0.2,0,0.5,0,0.7c0,8.1-5.1,19.8-19.1,25.8c-0.1,0-0.2,0.1-0.3,0.1c0.4,0.5,0.8,1,1.4,1.3
		c3.9,2.2,11.3,5.2,19,8.2l-0.7-1.5c-0.3-0.5-0.4-1.1-0.4-1.7c0-1.1,0.2-17.1,4.4-31.8C347.7,728,346.3,727.6,345.2,727.3z"/>
	<path class="st2" d="M134.4,610.3c-9.2-7.7-20.5-16.8-26.7-21.7c-1.6,7.1-5,15-8.3,21.4c-0.2,0.3-0.3,0.6-0.5,0.9
		c5.8,6.1,14.1,14,20.3,18.3c2.8,1.9,4.7,2.6,7,2.8c-0.1-2.7,0-5.4,0.6-8.1C127.9,619.7,130.9,614.7,134.4,610.3z"/>
	<path class="st2" d="M80.8,367.6l4.3,182.7c5,3.5,9.9,8.1,13.9,12.6c5.8,0.3,11.2,2.6,17.2,7.2c0.3,0.2,18.9,14.7,33.2,26.9
		c6.9-3,13.6-2.1,19.4,2.5l37.2,25.9c1.7,1.2,3,2.9,3.7,4.9c0.1,0.3,0.2,0.5,0.3,0.8c5.1,0.2,10.6,1.5,16,4.4c9.4,5,34.9,27,42,33.8
		c0.9,0.9,1.8,1.8,2.5,2.7c5.2,0.2,10.2,0.9,14,1.4c0.5,0.1,1,0.2,1.5,0.3c2.8,0.9,27.8,8.8,40,16.6c6.8,4.3,11.7,9.7,14.9,16.3
		c3.3,0.2,5.7,0.6,6.3,0.7c0.2,0,0.5,0.1,0.7,0.2c0.1,0,4.2,1.1,10.5,2.9c1.3-1.4,2.6-2.7,4.2-3.7c15.9-10.5,115.4-43.6,119.6-45
		c0.1,0,0.3-0.1,0.4-0.1c12.2-2.5,22.1-0.6,29.9,3c7.4-4.3,15.7-7.7,25.1-9.5l5-9l0.9-1c1.3-1.4,32.5-34.4,57-41
		c1.9-0.5,3.7-0.9,5.4-1.2c1.6-1.9,3.4-3.7,5.5-5.5c17.8-15.3,32.5-26.2,44.9-28.8c0.5-0.5,1-0.9,1.6-1.3c0.5-0.4,2.2-2.3,3.2-3.3
		c7.1-7.6,19.2-20.5,33.7-26l5.2-170.8l0-0.1c1-10,1.4-20.1,1.4-30c0-74.7-26.2-145.4-74.2-201.6c-6.3,2.9-11.1,4.9-12.7,5.5
		c-0.4,0.2-0.9,0.2-1.3,0.2c-1.5,0-2.9-0.9-3.5-2.4c-0.7-1.9,0.2-4.1,2.1-4.8c16-6.1,57.2-26.2,55.4-44.8
		c-2.2-22.6-33.4-41.8-61.9-52.1c-3.5-1.3-6.9-1-10.2,0.8C581.1,46,571.7,78.2,569.2,90c-0.4,2-2.4,3.3-4.4,2.9
		c-2-0.4-3.3-2.4-2.9-4.4c0.1-0.5,0.8-4,2.2-9c-50.9-34.5-111-53.1-173.9-53.1c-71.1,0-138.5,23.7-193.3,67.3
		c1.7,4.6,2.5,7.8,2.6,8.3c0.5,2-0.7,4-2.7,4.5c-2,0.5-4-0.7-4.5-2.7c-0.1-0.4-11.2-42.8-36.8-47.6c-11.9-2.3-32.8,7.6-45.6,21.4
		c-5.3,5.7-13.6,17-10.4,28.9c5.2,19.2,19.9,33.1,30.7,43.3c4.5,4.3,8.1,7.6,10.1,10.6c1.1,1.7,0.7,4-1,5.1
		c-0.6,0.4-1.3,0.6-2.1,0.6c-1.2,0-2.4-0.6-3.1-1.7c-0.4-0.5-0.8-1.1-1.4-1.7C98,214,79.3,274.3,79.3,337.4c0,9.9,0.5,19.9,1.4,30
		L80.8,367.6z M578.4,108.2c0.6-1.2,16-29.8,39.1-33.8c2-0.4,3.9,1,4.3,3c0.4,2-1,3.9-3,4.3c-1.8,0.3-3.6,0.8-5.3,1.5
		c-3.7,9.1-7.2,29.1-15,32.7c-7.1,3.3-12.7-0.3-15.3-2.6c-0.5,0.2-1,0.4-1.5,0.4c-0.6,0-1.2-0.1-1.7-0.4
		C578.1,112.3,577.5,110,578.4,108.2z M565.6,238.3c62.8,0,113.8,51.1,113.8,113.8S628.3,466,565.6,466S451.7,415,451.7,352.2
		S502.8,238.3,565.6,238.3z M399.8,511.8c0-0.4,0-0.7,0-1.1c0-12,9-21.8,20-21.8c11.1,0,20,9.8,20,21.8c0,0.5,0,0.9-0.1,1.4
		c7,0.8,18.6,4.1,26.5,11.1c6.4,5.7,8.8,17.2,7.9,25.2c-0.6,5-2.5,8.4-5.4,10c-2.1,1.1-5.2,1.4-9.5,1c-0.1,3.1-0.3,6.9-0.9,11.6
		c-1.3,11-3.7,22.1-5.2,26.2c-1.3,3.6-4.9,5.4-10.5,5.4c-3.1,0-6.8-0.6-11.1-1.7c-3.2-0.9-5.7-1.7-7.5-2.6c-1,1.2-2.5,2.4-5,3.2
		c-2.2,0.8-5,1.2-8,1.2c-5.8,0-12.6-1.5-18-4.8c-8.2-5.1-8.8-24.2-8.4-36c-1.2,0.1-2.5,0.2-3.7,0.2c-3.5,0-7-0.4-10.2-1.5
		c-5.8-1.9-8.1-5.7-8.9-8.6c-2.7-8.7,3.6-20.3,7.8-25.7C376.7,516.9,393.8,513,399.8,511.8z M263.3,261.9
		c59.3,0,107.5,48.2,107.5,107.5S322.6,477,263.3,477s-107.5-48.2-107.5-107.5S204,261.9,263.3,261.9z M131.1,94.8
		c-2.3-1.3-3.7-2.1-3.8-2.1c-1.8-0.9-2.6-3.2-1.6-5c0.9-1.8,3.2-2.6,5-1.6c1.6,0.8,38.2,19.7,45.1,43.3c0.6,2-0.6,4-2.5,4.6
		c-0.3,0.1-0.7,0.1-1,0.1c-0.2,0-0.3,0-0.5,0c-4.2,4.9-20.7-1.3-20.7-1.3S135.7,105.7,131.1,94.8z"/>
	<path class="st2" d="M167.1,622.5c-0.4,6.5-3.2,12.7-5.2,15.1c-0.1,0.1-0.2,0.2-0.3,0.4l-0.1,0.2c-1,1.4-2.8,3.9-5.4,6.4
		c7.8,6.6,15.4,12.7,20.2,15.9c1.7-6.2,6.8-12.9,13.1-20.7l0.9-1.1L167.1,622.5z"/>
	<path class="st2" d="M235.5,690c3.1-5.9,7.5-10.4,11.2-13.2c-10.6-9.3-25.4-21.3-30-23.7c-0.3-0.2-0.7-0.3-1-0.5
		c0,1.3,0,18-9.4,24.4c10.6,7.6,20.2,14.3,26.8,18.7C233.8,693.8,234.5,691.9,235.5,690z"/>
	<path class="st3" d="M171.7,134.1c-1.4-0.2-2.7-1.2-3.1-2.6c-4.8-16.5-28.2-31.3-37.5-36.7c4.7,10.9,19.9,38,19.9,38
		S167.5,139,171.7,134.1z"/>
	<path class="st2" d="M269.4,700.2c-1.1,2.4-2.2,4.7-2.7,6.5c-1,3.8-3.3,8.1-8.1,10.9c2.8,2.2,7.2,4.1,16.1,8
		c11.4,5,22.5,7.9,30.6,9.4c0.4-3.1,0.9-6.1,1.4-9l0.1-0.4c0.9-5.6,3.9-10.3,8.6-13.6c1.2-0.8,2.4-1.5,3.7-2.1
		c-1.1-1-2.3-1.9-3.6-2.7c-9.4-5.9-31.2-13.1-34.7-14.2c-2.6-0.4-5.4-0.7-8-0.9C271.7,695.1,270.4,697.9,269.4,700.2z"/>
	<path class="st2" d="M685.8,831.8l6.7-221.6c-1.3,0.6-2.6,1.2-3.9,1.7c-5.8,11.1-19.2,24.5-21,26.3c-11,10.9-27,23.9-41,23.9h0
		c-1.4,0-2.8-0.1-4.1-0.3c-3.9,3.2-8.4,6.6-13.6,10.2c-9.7,6.7-23.1,14.6-34.1,19c-3.7,8.6-10.6,19.3-22.7,32.6l-0.5,0.5l13.1,30.9
		C615,762.5,658.5,791.3,685.8,831.8z"/>
	<path class="st4" d="M174.7,416c15.3,12.3,50.4,36.3,90.3,36c43.3-0.3,76.1-28.5,90.5-43.4c5.1-12,8-25.2,8-39.1
		c0-55.2-44.9-100.1-100.1-100.1s-100.1,44.9-100.1,100.1C163.2,386.2,167.4,402.1,174.7,416z M223,322.5c9.1,0,16.4,8.7,16.4,19.4
		c0,10.7-7.3,19.4-16.4,19.4c-9.1,0-16.4-8.7-16.4-19.4C206.6,331.2,214,322.5,223,322.5z"/>
	<path class="st4" d="M569.6,439.4c52-0.1,83.2-33.9,96.8-53.2c3.6-10.7,5.6-22.1,5.6-34c0-58.7-47.7-106.4-106.4-106.4
		s-106.4,47.7-106.4,106.4c0,12,2,23.6,5.7,34.3C479.8,405.1,515,439.5,569.6,439.4z M616.7,305c7.5,0,13.5,8.3,13.5,18.4
		c0,10.2-6.1,18.4-13.5,18.4s-13.5-8.3-13.5-18.4C603.1,313.3,609.2,305,616.7,305z"/>
	<path class="st4" d="M407.7,556.7c-4.8,1.5-10.1,3.1-15.6,4.1c-0.6,11.9,0.5,21.4,2.4,26.6c5.5,1.9,11.5,2.8,15,2.9
		c2.6,0.1,6.1-5.2,8.6-9.7c-0.4-7.6-1-17.7-1.6-26.5C413.9,554.8,410.8,555.7,407.7,556.7z"/>
	<path class="st3" d="M538.4,1108.1c-16.6,0-32.7-2.3-47.9-6.6c-44.2,14.5-109.8,25.3-178.7-0.8
		c-154.1-58.5-203.4-165.3-218.5-215.9c4.7,68.8,35.9,133.5,89,183.7c56.3,53.2,132.1,83.7,208,83.7c38.6,0,76.4-7.7,112.5-22.9
		c14.4-6,28.2-13.2,41.4-21.3C542.3,1108.1,540.3,1108.1,538.4,1108.1z"/>
	<path class="st4" d="M451.8,558.5c-3.4-0.6-7.3-1.3-11.6-2.2c-6-1.2-12.1-2.4-16.2-2.8c0.7,11.1,1.2,20,1.6,26.5
		c3,3.4,7.3,7.2,12.4,8.1c4.1,0.8,7.7-0.5,10.5-2.2c0.9-4.2,1.7-9.2,2.4-14.1C451.5,566,451.8,561.6,451.8,558.5z"/>
	<path class="st1" d="M384.9,548.9c7.2,0.6,16.9-7.1,33.7-7.5c16.9-0.4,16.2,0.9,29.9,2c7.9,0.6,14.2-0.5,18.2-1.6
		c-0.6-5-2.5-10.4-5.4-13c-6.6-5.9-17.4-8.9-23.1-9.4c-3.1,7.7-10.1,13.1-18.4,13.1c-8.3,0-15.5-5.6-18.5-13.5
		c-6.8,1.2-20.8,4.9-25.9,11.7c-3,4-5.8,9.4-6.6,13.9C372.3,547.5,379.2,548.5,384.9,548.9z"/>
	<path d="M223,361.3c9.1,0,16.4-8.7,16.4-19.4c0-10.7-7.3-19.4-16.4-19.4c-9.1,0-16.4,8.7-16.4,19.4
		C206.6,352.6,214,361.3,223,361.3z M218.7,332.6c2.4,0,4.3,2.1,4.3,4.6s-1.9,4.6-4.3,4.6s-4.3-2.1-4.3-4.6S216.3,332.6,218.7,332.6
		z"/>
	<path class="st3" d="M585,111.7c-0.4,0.8-1,1.3-1.8,1.6c2.6,2.3,8.2,5.9,15.3,2.6c7.8-3.6,11.4-23.6,15-32.7
		C596.8,89.8,585.1,111.4,585,111.7z"/>
	<path d="M616.7,341.9c7.5,0,13.5-8.3,13.5-18.4c0-10.2-6.1-18.4-13.5-18.4s-13.5,8.3-13.5,18.4
		C603.1,333.6,609.2,341.9,616.7,341.9z M620.4,313.7c2.7,0,4.9,2.2,4.9,4.9c0,2.7-2.2,4.9-4.9,4.9c-2.7,0-4.9-2.2-4.9-4.9
		C615.5,315.9,617.7,313.7,620.4,313.7z"/>
	<path d="M168.6,131.5c0.4,1.5,1.7,2.5,3.1,2.6c0.2,0,0.3,0,0.5,0c0.3,0,0.7,0,1-0.1c2-0.6,3.1-2.6,2.5-4.6
		c-6.9-23.6-43.5-42.5-45.1-43.3c-1.8-0.9-4.1-0.2-5,1.6c-0.9,1.8-0.2,4.1,1.6,5c0.1,0,1.5,0.8,3.8,2.1
		C140.4,100.2,163.8,115,168.6,131.5z"/>
	<path d="M580,113.2c0.6,0.3,1.1,0.4,1.7,0.4c0.5,0,1-0.1,1.5-0.4c0.7-0.3,1.4-0.9,1.8-1.6c0.1-0.2,11.8-21.9,28.5-28.5
		c1.7-0.7,3.5-1.2,5.3-1.5c2-0.4,3.4-2.3,3-4.3c-0.4-2-2.3-3.4-4.3-3c-23.1,4.1-38.5,32.6-39.1,33.8
		C577.5,110,578.1,112.3,580,113.2z"/>
	<path class="st1" d="M43.8,791.4c-0.4,0.9-1.3,3-1.7,4.9c35.3-10.1,65.5-35.8,65.5-35.8l1.7,12.3c0.1,0,0.2-0.1,0.4-0.1l-5.9-35.5
		C97.3,740.4,58,760.6,43.8,791.4z"/>
	<path class="st5" d="M484.3,668.9c-35.4,11.7-104.9,35.9-117.4,43.9c13.4,3.9,31,9.3,42.8,14.1l65.6-23.8
		c6.4-10.7,16.1-23.6,29.7-33.6C499.2,667.9,492.3,667.3,484.3,668.9z"/>
	<path class="st6" d="M549.5,717.2c6.5-7.3,12.6-15.5,16.9-23.4c-0.5,0.1-1,0.2-1.5,0.3c-1.9,0.3-3.8,0.5-5.7,0.5
		c-1.2,0-2.3-0.1-3.4-0.2c-3.2,5-7,10.1-10.8,14.6l2.8,6.7L549.5,717.2z"/>
	<path class="st5" d="M548,649.5l-0.4,0.4l-2.3,4.2c1.1-0.1,2.3-0.2,3.5-0.3c2.5-0.1,4.9-0.1,7.1,0c4.5-4.6,24-24,40.9-32.2
		c0.8-3.5,2-7.2,4-10.9C578.1,617.6,549.2,648.2,548,649.5z"/>
	<path class="st5" d="M537.6,661.5c-1.4,0.3-2.7,0.6-4.1,1c-5.3,1.4-10.1,3.4-14.6,5.8c-2.5,1.3-4.9,2.7-7.2,4.2
		c-19.9,13.2-31.7,33.6-37.1,45c-0.8,1.7-1.5,3.2-2,4.5c-0.4,0.8-0.6,1.6-0.8,2.4c-1.2,4.4-0.1,7.8,1.1,9.9
		c3.3,5.7,10.5,8.3,14.7,9.3l0.3-2.1l-4.5-8.8c-1.3-0.8-2.4-1.7-3-2.8c-0.5-1-0.6-2-0.4-2.9c0.1-0.8,0.4-1.5,0.6-1.9
		c0.6-1.4,1.3-3.1,2.3-5c5.4-11.3,17.1-30.8,36.6-42.4c2.2-1.3,4.5-2.5,6.8-3.6c2.1-0.9,4.2-1.8,6.4-2.5c1-0.3,2-0.6,3-0.9
		c1-0.3,2-0.5,3-0.8c2.7-0.6,5.6-1.1,8.6-1.3c0.8-0.1,1.6-0.2,2.4-0.2c0.4,0,0.7,0,1.1,0c1.3,0,2.4,0,3.5,0c4.9,0.2,8.1,1.5,9.1,3.7
		c0.1,0.2,0.1,0.3,0.2,0.5c2.2-0.7,4.9-1.8,8-3.2c-0.1-0.3-0.3-0.7-0.4-1c-2.1-4.4-6.2-7.1-12.4-8.2c-1-0.2-2.2-0.3-3.3-0.4
		c-1-0.1-2.1-0.1-3.3-0.1c-0.1,0-0.1,0-0.2,0c-0.9,0-1.9,0-2.9,0.1c-2.6,0.1-5.1,0.4-7.5,0.8C540.2,661,538.9,661.2,537.6,661.5z"/>
	<path class="st6" d="M669.8,616.2c-0.7,0-1.4,0-2.1-0.1c-7.5,9.1-18.6,20-28.4,26.2c-1.7,4.1-5.1,8.5-10,13.4
		c9-1.3,20.9-9,33.9-21.8c5.9-5.8,12-12.8,16.2-18.9c-1.8,0.4-3.7,0.8-5.5,1C672.5,616.2,671.1,616.2,669.8,616.2z"/>
	<path class="st5" d="M661.7,583.1c1.6,0,3.4,0.7,5.3,2c0.8,0.6,1.6,1.3,2.5,2.1c0.4,0.4,0.8,0.8,1.2,1.2c0.4,0.4,0.7,0.9,1.1,1.3
		c1.2,1.5,2.1,3.1,2.9,4.8c2.6-0.6,5.4-1.6,8.2-2.9c-1.4-3.1-3.3-6.2-5.7-8.9c-0.8-0.9-1.6-1.7-2.4-2.4c-0.8-0.7-1.6-1.4-2.4-2
		c-0.9-0.6-1.7-1.2-2.6-1.7c-2.6-1.4-5.3-2.2-8-2.2c-0.7,0-1.5,0.1-2.3,0.1c-1.3,0.2-2.6,0.4-4,0.8c-1.2,0.3-2.4,0.8-3.7,1.3
		c-10.9,4.4-23.7,14.7-36.4,25.6c-0.2,0.2-0.4,0.3-0.5,0.5c-1.1,1-2.1,2-3.1,3c-1,1.1-1.9,2.1-2.7,3.2c-2.4,3.2-4.1,6.5-5.2,9.7
		c-0.4,1.2-0.8,2.4-1,3.6c-0.3,1.2-0.5,2.4-0.7,3.5c-1.3,9.6,1.5,17.1,1.7,17.7l0.1,0.3l0.2,0.3c0.6,1,1.4,2.2,2.5,3.4
		c2.7-2.1,4.9-4,6.6-5.6c-0.5-0.5-0.9-1-1.1-1.3l-0.3-0.4l-0.2-0.5c-0.5-1.8-2.1-8.3-0.2-15.8c0.3-1,0.6-2,1-3.1c0.4-1,0.8-2,1.4-3
		c1.4-2.6,3.2-5.1,5.8-7.6c0.4-0.4,0.8-0.8,1.3-1.2c0.4-0.4,0.9-0.8,1.3-1.1c0.9-0.7,1.7-1.5,2.6-2.2c8.4-7.1,17.7-14.4,25.5-18.6
		c1.3-0.7,2.6-1.3,3.8-1.9c1.1-0.5,2.3-0.9,3.3-1.2C659.1,583.3,660.5,583.1,661.7,583.1z"/>
	<path class="st5" d="M609,653.5c-0.8,0.6-1.7,1.3-2.6,1.9c-2.2,1.7-4.6,3.4-7.3,5.2c-7.2,4.8-14.3,9.1-20.7,12.4
		c-1,0.5-2,1-2.9,1.5c-1.1,0.5-2.1,1-3.1,1.4c-3.6,1.6-6.7,2.7-9.1,3.3c-0.3,0.1-0.7,0.2-1,0.2c-0.8,0.1-1.6,0.2-2.4,0.3
		c-0.2,0-0.4,0-0.7,0c-0.9,0-1.7-0.1-2.5-0.3c-1.4-0.3-2.7-0.8-3.8-1.6c-1.2-0.9-2.2-2-3-3.1c0,0,0,0,0,0c-3.2,0.2-6.3,0.6-9.2,1.3
		c1.4,3,3.7,6.4,7.2,8.9c1.5,1.1,3.2,1.9,4.9,2.5c1,0.3,2.1,0.6,3.2,0.7c1.1,0.2,2.2,0.3,3.4,0.3c1.4,0,2.9-0.1,4.5-0.4
		c1.8-0.3,3.9-0.9,6.1-1.7c1.2-0.4,2.5-0.9,3.8-1.5c1.2-0.5,2.4-1,3.6-1.6c9-4.2,19.4-10.4,27.9-16.2c3.6-2.5,6.7-4.8,9.5-6.9
		c1-0.8,2-1.5,2.9-2.3c1-0.8,2-1.7,2.9-2.4c3.6-3.1,6.4-5.9,8.4-8.3c1.3-1.5,2.3-2.9,3.1-4.2c1.1-1.7,1.7-3.2,2.1-4.5
		c0.2-0.6,0.3-1.2,0.3-1.7c0.8-9.4-2.2-18-8.1-23c-0.3-0.2-0.5-0.4-0.8-0.7c-0.2,0.2-0.4,0.3-0.6,0.5c-2.3,2-3.9,4-5.2,6.1
		c0.3,0.2,0.7,0.4,1,0.7c5.4,4.6,5.2,12.9,5,15.4l0,0.4l-0.1,0.3c-0.3,1-1.2,2.5-2.7,4.2c-0.6,0.8-1.4,1.6-2.3,2.5
		c-0.7,0.7-1.5,1.5-2.3,2.3c-1.9,1.8-4.3,3.9-6.9,6C610.7,652.2,609.9,652.9,609,653.5z"/>
	<path class="st5" d="M701,542.7c-14.8,3.6-28.1,17.8-35.5,25.7c0,0.1-0.1,0.1-0.1,0.1c3,0.5,5.9,1.7,8.7,3.4
		c6.1-6.4,15.7-15.9,25.6-19.8C700.1,549.2,700.6,546,701,542.7z"/>
	<path class="st5" d="M729.6,567.8c0.4-9.4-2-16.7-6.8-21.1c-0.3-0.3-0.7-0.6-1-0.8c-0.6,4.2-1.2,8.5-1.8,12.3
		c0.8,2.4,1.1,5.4,1,8.9l0,0.4l-0.1,0.4c-2,6-15.9,18.8-30.4,26.7c-0.9,0.5-1.9,1-2.8,1.5c-1,0.5-1.9,0.9-2.9,1.3
		c-2.8,1.2-5.6,2.2-8.3,2.9c-1,0.3-2,0.5-3,0.6c-0.4,0.1-0.8,0.1-1.2,0.2c-0.7,0.1-1.3,0.1-1.9,0.1c-0.2,0-0.4,0-0.6,0
		c-1.1,0-2.1-0.1-2.9-0.3h-1.2l-0.9-1.4c-1.2-1.9-0.8-5.4,0-8.4c-1.5-1.4-2.7-1.9-3-1.9c-1.2,0-3.1,0.4-5.8,1.7
		c-0.9,4.3-1,9.8,1.9,13.9c1.7,2.3,4.1,3.9,7.2,4.6c1.1,0.3,2.3,0.5,3.6,0.5c1.2,0.1,2.5,0,3.9-0.1c0.2,0,0.5,0,0.7-0.1
		c3.6-0.4,7.3-1.4,10.8-2.7c1.3-0.5,2.6-1,3.8-1.6c1.2-0.5,2.3-1,3.4-1.6c7.9-3.9,14.6-8.8,18.2-11.5
		C727.8,578.3,729.5,570,729.6,567.8z"/>
	<path class="st5" d="M538.4,753.1c6,0,11.8,0.3,17.6,0.9l-15.5-36.7l-3.6-8.5l-8.4-19.9c-0.3-0.6-1.9-3.3-4.6-6.6
		c-14.7,8.3-24.9,21.7-31.1,32.3l19.8,40.3C521,753.8,529.7,753.1,538.4,753.1z"/>
	<path class="st5" d="M707.2,568.7c2.3,0.5,4.7-1,5.2-3.3c0.4-1.8,0.8-4,1.2-6.5c0.2-1.3,0.4-2.6,0.6-3.9c0.2-1.1,0.3-2.2,0.5-3.3
		c0.4-2.9,0.9-5.9,1.3-8.8c0.1-1,0.3-2.1,0.4-3.1c0.1-1.1,0.3-2.1,0.4-3.1c1-7.3,1.6-13,1.7-13.5c0.3-2.4-1.4-4.5-3.8-4.8
		c-0.2,0-0.3,0-0.5,0c-2.2,0-4,1.6-4.3,3.8c0,0.1-0.7,6-1.7,13.5c-0.1,1-0.3,2.1-0.4,3.1c-0.1,1-0.3,2.1-0.4,3.1
		c-0.4,2.9-0.8,5.9-1.3,8.8c-0.2,1.1-0.3,2.1-0.5,3.2c-0.2,1.1-0.4,2.2-0.5,3.2c-0.4,2.5-0.8,4.7-1.2,6.5c-0.2,1.1,0,2.3,0.6,3.3
		C705.1,567.8,706.1,568.4,707.2,568.7z"/>
	<path class="st6" d="M320.5,767.1c6.8,3.8,22.2,9.8,34.4,14l-4.7-9.5c-10-3.6-20.6-7.9-26-10.9c-2.1-1.2-3.6-2.9-4.5-5.1
		c-1.4,0.2-2.9,0.3-4.5,0.3c-1.1,0-2.2,0-3.4-0.1C313.1,760.5,315.8,764.5,320.5,767.1z"/>
	<path class="st5" d="M422.2,796.5l-6.3-11.2l-3.2-5.8l-5.3-9.4l-3.3-5.8l-1.8-3.2c-0.5-0.9-0.6-2.1-0.3-3.1l2.2-6.2
		c-2.5-3.3-6.4-6.9-12-9.2c-11.3-4.6-25.6-9.1-35.9-12.1c-0.5,1.9-1,3.8-1.4,5.7l40.9,88.5C403.7,814.4,412.5,804.9,422.2,796.5z"/>
	<path class="st5" d="M354.6,715.8c-4.9-1.4-8.1-2.2-8.2-2.2c-0.1,0-0.2,0-0.3-0.1c-0.2,0-1.2-0.2-2.8-0.4c-0.9-0.1-2.1-0.2-3.4-0.3
		c-1-0.1-2.1-0.1-3.3-0.1c-2.4,0-5.1,0.1-7.7,0.6c-1,0.2-2.1,0.4-3.1,0.6c-1,0.3-2,0.6-3,1c-1.4,0.6-2.8,1.3-4,2.1
		c-3.3,2.3-5.4,5.6-6,9.6l-0.1,0.4c-0.5,2.9-1,5.9-1.4,8.9c3.1,0.3,5.3,0.4,6.1,0.1c0.2-0.1,0.4-0.2,0.5-0.2c0.3-0.1,0.6-0.3,1-0.5
		c0.3-2.3,0.7-4.6,1.1-7.1l0.1-0.4c0.3-2,1.3-3.5,3-4.7c0.6-0.4,1.2-0.7,1.9-1.1c0.9-0.4,1.9-0.7,3-1c0.9-0.2,1.9-0.4,3-0.6
		c1.7-0.2,3.5-0.3,5.5-0.3c0.7,0,1.3,0,2,0c1.1,0,2.1,0.1,3.1,0.2c1,0.1,2,0.2,2.9,0.4l0.3,0.1l0,0c0.8,0.2,3.2,0.8,6.6,1.8
		c2,0.6,4.4,1.2,7.1,2c10.4,3,24.8,7.5,36.2,12.2c5,2.1,9,5,12.1,8.3c2.3,2.4,4,4.9,5.3,7.2c2,3.7,2.7,7.1,2.2,8.8l-0.2,0.5
		l-1.7,2.1l5.4,9.7l0.4-0.2c3.5-2.1,5.5-8.1,5-15.3c-0.4-5.3-2.1-11.2-5.2-16.1c-1.4-2.3-3.2-4.3-5.2-6c-1.5-1.2-3.2-2.3-5.1-3.1
		c-12.6-5.2-32.2-11.1-45.8-15C359.2,717.1,356.7,716.4,354.6,715.8z"/>
	<path class="st5" d="M322.7,695.6c-11.8-7.5-37.5-15.6-38.6-15.9c-0.2-0.1-0.4-0.1-0.6-0.1c-3.5-0.5-6.8-0.9-9.9-1.1
		c0.7,2.5,0.8,5.1,0.5,7.5c2.6,0.2,5.2,0.5,7.8,0.9l0.5,0.1c4.3,1.4,26.2,8.6,36.3,14.9c2.7,1.7,4.9,3.6,6.7,5.8
		c2.8-0.6,5.6-1,8.3-1.1C331.1,702.3,327.4,698.6,322.7,695.6z"/>
	<path class="st5" d="M240,714c0,0.1,0.1,0.2,0.1,0.3c0.6,1.2,1.1,2.2,1.6,3.2c0.6,1.2,1.2,2.2,1.7,3.2c4.5,7.5,9,10,25.7,17.3
		c9.9,4.3,23.7,8.7,35.3,10.6c1,0.2,2.1,0.3,3.1,0.4c1.1,0.1,2.1,0.2,3.1,0.3c1.5,0.1,3,0.2,4.4,0.2c1.1,0,2.1-0.1,3.1-0.1
		c1.1-0.1,2.1-0.3,3-0.5c0.8-0.2,1.6-0.5,2.2-0.8l0.1-0.1c0.2-0.1,0.4-0.2,0.7-0.3c5.8-2.7,14.7-9.6,14.7-19.9c0-0.5,0-1.1,0-1.6
		c-0.8,0-1.7-0.1-2.5-0.1c-1.8,0-3.5,0.1-4.9,0.3c0,0.4,0,0.9,0,1.3c0,5-3.7,8.7-6.8,11c-1.3,1-2.5,1.7-3.3,2.1
		c-0.5,0.3-0.9,0.4-0.9,0.5c-0.2,0.1-0.3,0.1-0.4,0.2l-0.1,0.1l-0.1,0.1l-0.1,0c-0.4,0.2-1,0.3-1.6,0.4c-0.8,0.1-1.7,0.2-2.7,0.2
		c-1.4,0-3-0.1-4.7-0.3c-1-0.1-2-0.2-3.1-0.4c-1-0.1-2-0.3-3-0.5c-9.5-1.7-21.7-5.2-32.4-9.9c-12.1-5.3-16.9-7.5-20.1-11.2
		c-0.7-0.8-1.4-1.7-2-2.8c-0.5-0.9-1.1-1.8-1.6-2.9c-0.6-1.1-1.1-2.3-1.8-3.6c-0.6-1.2-0.9-2.4-1.2-3.5c-0.2-1.1-0.3-2.1-0.2-3.1
		c0-1.1,0.2-2.1,0.4-3.1c1.1-4.4,3.9-8.3,6.5-11c1.6-3.5,2.3-5.7,2.2-6.3c-0.9-0.8-1.9-1.7-2.9-2.7c-3.3,2.2-7.5,6.3-10.5,11.9
		c-1.1,2.1-1.9,4.2-2.4,6.3c-0.3,1.1-0.5,2.2-0.6,3.3c-0.1,1.2-0.1,2.4-0.1,3.6C238.1,708.8,238.8,711.5,240,714z"/>
	<path class="st6" d="M231.8,702.2c-7.8-5.2-20.2-13.9-32.2-22.5c-2.4,0.8-5.5,1.9-9.1,2.6c24.2,17.5,36,25.5,42,29
		C231.8,708.4,231.5,705.3,231.8,702.2z"/>
	<path class="st5" d="M202.5,630.5L165,604.4c-2.4-2-4.9-2.9-7.6-2.9c-0.8,0-1.6,0.1-2.5,0.3c5.3,4.7,9.3,8.6,10.3,10.6
		c0.3,0.6,0.6,1.3,0.9,1.9l29.2,20.3c2.4-1.4,5.2-2.4,8.3-2.9C203.2,631.2,202.9,630.8,202.5,630.5z"/>
	<path class="st6" d="M132.8,635.2c0.2,1.1,0.3,2.1,0.5,3.1c0.4,2,0.9,3.7,1.3,5c0.2,0.6,0.6,1.1,1,1.6c0.3,0.3,0.7,0.6,1,0.9
		c1.1,1,2.3,2,3.5,3.1c1,0.9,2,1.8,3.1,2.7c10.7,9.2,24.4,20.4,30.6,23.3c1.1,0.5,2.2,0.9,3.4,1.2c1.2,0.3,2.4,0.6,3.7,0.7
		c0.9,0.1,1.7,0.1,2.6,0.1c0.3,0,0.7,0,1,0c3.2-0.1,6.2-0.8,8.9-1.6c1.3-0.4,2.5-0.8,3.6-1.2c0.2-0.1,0.5-0.2,0.7-0.3
		c1.1-0.4,2.1-0.7,2.8-1c0,0,0,0,0,0c8.8-2.5,8.9-20.1,8.9-20.3c0-0.4-0.1-0.9-0.2-1.6c-1.8-0.1-3.2,0.1-3.8,0.3l-0.7,0.8
		c-1.1,1.4-2.1,2.6-3,3.7c-0.3,3.1-1.2,6.8-2.3,8.7l-0.6,1l-1.1,0.3c-0.7,0.2-1.5,0.5-2.3,0.8c-0.1,0-0.1,0-0.2,0.1
		c-0.9,0.3-1.8,0.6-2.8,1c-1,0.3-2,0.6-3,0.9c-1.9,0.5-3.9,0.8-5.9,0.8c-0.5,0-1,0-1.5-0.1c-1.1-0.1-2.1-0.3-3.2-0.6
		c-0.6-0.2-1.3-0.4-1.9-0.7c-0.4-0.2-0.8-0.4-1.3-0.7c-5.4-3.1-15.8-11.4-24.6-18.9c-0.8-0.7-1.7-1.4-2.5-2.1
		c-0.9-0.7-1.7-1.5-2.5-2.2c-1.5-1.3-2.9-2.5-4.1-3.6l-0.7-0.6l-0.2-0.9c-0.1-0.3-0.1-0.6-0.2-0.9c-0.2-0.8-0.4-1.9-0.6-3
		c-0.2-1-0.3-2-0.4-3.1c-0.1-1.7-0.1-3.4,0.2-4.8c0.5-2.2,2.4-5.2,4.6-8.1c-1.5-1.4-3.4-3-5.6-4.8c-3,3.8-5.5,7.9-6.2,11.2
		c-0.5,2-0.6,4.3-0.4,6.6C132.5,633.1,132.6,634.2,132.8,635.2z"/>
	<path class="st5" d="M264.9,675c-0.4-0.4-0.7-0.8-1.2-1.2c-0.5-0.5-1.2-1.1-1.9-1.7c-8.5-7.8-30.8-26.8-38.7-31
		c-3.3-1.7-7.1-2.9-10.9-3.4c-1.1-0.1-2.2-0.2-3.3-0.2c-0.1,0-0.3,0-0.4,0c-0.9,0-1.9,0.1-2.8,0.2c-2.6,0.3-5.1,1-7.1,2.2
		c-1,0.6-1.8,1.2-2.6,2c-0.3,0.3-0.5,0.5-0.8,0.8l-0.9,1.1c-0.2,0.3-0.5,0.6-0.7,0.9c-5.8,7.2-10.5,13.7-11.5,18.7
		c2.6,0.4,5.4-0.3,8.2-1.2c1-2,2.8-4.7,5.6-8.4c0.8-1,1.6-2.1,2.6-3.3c0.5-0.6,1-1.3,1.6-2l0.8-1l0.1-0.1c1.2-1.5,3.8-2.3,6.9-2.3
		c1,0,2.1,0,3.3,0.2c1.1,0.1,2.2,0.3,3.4,0.6c1.8,0.5,3.5,1.1,5.1,1.9c5.9,3.1,22.5,16.9,32.8,26c1,0.9,1.9,1.7,2.7,2.4
		c1.1,1,2,1.8,2.8,2.6c0.2,0.2,0.4,0.4,0.6,0.5c1.9,1.8,2.3,3.9,1.8,6.6c-0.2,1-0.5,2.1-1,3.2c-0.5,1.4-1.2,3-2,4.7
		c-0.1,0.3-0.2,0.5-0.4,0.8c-1.3,2.9-2.7,5.8-3.5,8.8c-0.3,1.2-1,2.1-1.9,2.7c0.1,0.7,0.3,1.5,0.7,2.2c0.9,1.9,1.6,3.4,2.4,4.6
		c3.1-1.6,5.2-4.1,6.1-7.6c0.6-2.3,1.8-4.8,3-7.5c0.9-2,1.8-3.9,2.5-5.8c0.4-1,0.7-2.1,1-3.1c0.3-1,0.5-2.1,0.6-3.1
		c0.3-2.6,0.1-5.1-1-7.5C266.4,677.1,265.7,676,264.9,675z"/>
	<path class="st5" d="M148.7,604.5c-0.8-0.7-1.6-1.4-2.4-2.1c-0.8-0.7-1.6-1.3-2.4-2c-11.2-9.5-25.3-20.7-31.4-25.4
		c-2.7-2.1-5.1-3.6-7.6-4.5c1.4,2.1,2.4,4,2.9,5.5c0.6,1.6,0.8,3.5,0.8,5.4c4.5,3.6,18.6,14.8,29.8,24.1c0.8,0.7,1.6,1.3,2.4,2
		c0.8,0.7,1.6,1.4,2.4,2c2.1,1.8,4,3.4,5.6,4.8c0.9,0.8,1.6,1.5,2.3,2.1c0.7,0.7,1.4,1.3,1.8,1.8l0.4,0.4l0.2,0.2l0.1,0.9
		c0.4,2.4-0.8,7.1-2.1,9.1l0,0l-0.3,0.3c-0.2,0.3-0.5,0.6-0.8,1.1c-0.9,1.3-2.2,3.1-3.9,4.7c0.1,0.5,0.2,1,0.3,1.5
		c1.5,1.3,3,2.7,4.6,4c2.3-2.1,4-4.4,5-5.9l0.1-0.2c0.2-0.3,0.4-0.5,0.5-0.7c1.6-2,4.9-9.6,3.6-15.7c-0.2-1-0.5-1.9-1-2.8
		c-0.3-0.6-1.4-1.8-2.8-3.2c-0.7-0.7-1.5-1.5-2.5-2.3C152.8,608.1,150.8,606.4,148.7,604.5z"/>
	<path class="st6" d="M94.7,626.1c8.5,8,16.8,14.4,16.9,14.5c6.3,4.4,11.3,5.3,16.7,5.3c0.3,0,0.5,0,0.8,0c-0.1-0.2-0.2-0.4-0.2-0.6
		c-0.3-0.9-1.1-3.5-1.8-6.9c-3.6-0.1-6.9-0.9-11.3-4c-6.4-4.4-15.3-12.7-21.7-19.5c-0.8-0.9-1.6-1.7-2.3-2.5c-0.9-1-1.6-1.9-2.3-2.7
		c-1.3-1.6-2.2-3-2.7-3.9l-0.3-0.6l-0.1-2.1c0-0.2,0-0.4,0-0.7c0-1.2-0.1-2.4-0.1-3.5c-0.1-3.3,0-6.1,0.1-8.4c0.3-4.9,1-7.8,1.7-9.6
		c-1-1.4-2.7-3.5-5-6c-0.3,0.4-0.6,0.8-0.8,1.3c-0.6,1-1,2.1-1.4,3.3c-1.1,3.1-1.6,6.7-1.9,10.3c-0.1,1.2-0.1,2.3-0.2,3.5
		c0,0.1,0,0.3,0,0.4c0,1.1,0,2.3,0,3.4c0,1.2,0,2.3,0.1,3.4c0,1,0.1,2,0.1,2.9c0,0.8,0.1,1.4,0.1,2c0,0.6,0.2,1.7,1,3.3
		c0.5,1,1.2,2.2,2.2,3.7c0.7,1,1.6,2.2,2.7,3.5C87.1,618.5,90.3,621.9,94.7,626.1z"/>
	<path class="st5" d="M84.3,567.4c0.4,0.4,0.9,0.8,1.3,1.3c0.8,0.8,1.6,1.6,2.3,2.4c2.1,2.3,3.9,4.4,5.1,6.2c0.8,1.1,1.4,2,1.7,2.8
		c0,0.1,0.1,0.1,0.1,0.2l0.2,0.5l0,0.5c0,0.5,0,1.2-0.1,2c-0.3,2.3-1.3,5.5-2.4,8.7c-0.1,2.8-0.2,6.3,0,11l0,0.7
		c0.4,0.6,1.1,1.5,1.9,2.5c4.3-8.6,6.9-16.2,7.7-21.6c0.2-1.3,0.3-2.4,0.2-3.5c0-1.1-0.2-2.1-0.5-2.9c-0.1-0.3-0.2-0.5-0.3-0.8
		c-1-2.1-2.9-5-5.4-8.1c-0.8-0.9-1.6-1.9-2.5-2.8c-0.8-0.9-1.7-1.8-2.5-2.7c-6.5-6.5-14.5-12.5-20.4-13.3c-0.3,0-0.5-0.1-0.9-0.1
		c-1.4,0-3.2,0.4-5,2l4.3,5.9l0.4-1l2.8,1.3c3,1.4,6.9,4.2,10.8,7.8C83.6,566.7,84,567,84.3,567.4z"/>
	<path class="st6" d="M72.8,603.5c-0.1-1.9-0.2-4-0.2-6.2c-2.9-1.7-5.3-3.6-6.3-5.4l-0.2-0.5c-0.4-1-0.7-2.8-0.8-5.1l-7.5-10.2
		c-0.5,8,0.1,15.8,1.9,19.1c1.9,3.6,7.1,7.7,13.2,10.6c0-0.2,0-0.3,0-0.5C72.8,604.9,72.8,604.2,72.8,603.5z"/>
	<path class="st5" d="M69.2,568.7l-2.5-3.4l-5.4-7.4l-2.1-2.9l-2-2.8l-0.3-0.4c-0.6-0.8-1.4-1.3-2.4-1.5c-0.2,0-0.4,0-0.6,0
		c-0.8,0-1.5,0.2-2.2,0.7c-0.8,0.6-1.3,1.4-1.5,2.4c-0.2,1,0.1,2,0.7,2.8l3.1,4.3l2.4,3.3l2.5,3.4l6.4,8.7l2.9,4l3.1,4.3l1.3,1.8
		c0.1,0.2,0.3,0.3,0.4,0.5c0.4-3.3,1-6.6,2.1-9.6l-3.4-4.6L69.2,568.7z"/>
	<path class="st5" d="M538.4,760.5c-93.8,0-170.1,76.3-170.1,170.1c0,19.6,3.4,38.5,9.5,56.1c43.7,53.9,114.3,92,166,91.6
		c1,0,2,0,3-0.1c2.4-0.1,4.7-0.2,7-0.5c45.3-5.1,104.7-39.6,126.2-53c18-27,28.5-59.3,28.5-94.1
		C708.5,836.8,632.2,760.5,538.4,760.5z M538.4,1043.6c-62.3,0-113-50.7-113-113c0-18.1,4.3-35.3,11.9-50.5
		c7.6-30.9,36.4-54.1,48.8-60.4c0.8-0.4,1.7-0.8,2.6-1.2l-19.3-14.2c-0.9-0.7-1.4-1.7-1.2-2.8c0.1-1.1,0.8-2,1.8-2.5l12.8-5.6
		l12.8-5.6c1-0.4,2.2-0.3,3.1,0.3c0.9,0.7,1.4,1.7,1.2,2.8l-2.8,24.4c23.7-7.2,66.2-10.2,103.1,9.6c20.5,11,32.5,37.1,38,52.6
		c8.4,15.8,13.2,33.8,13.2,53C651.4,992.9,600.7,1043.6,538.4,1043.6z"/>
	<path class="st7" d="M538.4,825c-58.2,0-105.6,47.4-105.6,105.6c0,12.5,2.2,24.6,6.2,35.7c15.8,16.6,59.5,57.3,105.1,55.8
		c8-0.3,16-2,23.8-4.7l-8.3-21.9c-0.6-1.6,0.2-3.4,1.8-4c1.6-0.6,3.4,0.2,4,1.8l8.3,21.9c28.8-11.9,53.7-35.7,62.2-44.4
		c5.1-12.4,8-26,8-40.2C644,872.4,596.6,825,538.4,825z M503.9,839.3c1.6-0.6,3.4,0.2,4,1.8l8.5,22.5c0.6,1.6-0.2,3.4-1.8,4
		c-0.4,0.1-0.7,0.2-1.1,0.2c-1.2,0-2.4-0.8-2.9-2l-8.5-22.5C501.5,841.7,502.3,839.9,503.9,839.3z M476.9,957.5l-25.9,9.8
		c-0.4,0.1-0.7,0.2-1.1,0.2c-1.2,0-2.4-0.8-2.9-2c-0.6-1.6,0.2-3.4,1.8-4l25.9-9.8c1.6-0.6,3.4,0.2,4,1.8
		C479.3,955.1,478.5,956.9,476.9,957.5z M538.4,972c-22.8,0-41.4-18.6-41.4-41.4c0-22.8,18.6-41.4,41.4-41.4
		c22.8,0,41.4,18.6,41.4,41.4C579.8,953.4,561.2,972,538.4,972z M631.5,895.7c0.6,1.6-0.2,3.4-1.8,4l-28.3,10.7
		c-0.4,0.1-0.7,0.2-1.1,0.2c-1.2,0-2.4-0.8-2.9-2c-0.6-1.6,0.2-3.4,1.8-4l28.3-10.7C629.1,893.3,630.9,894.1,631.5,895.7z"/>
	<path class="st5" d="M538.4,895.4c-19.4,0-35.2,15.8-35.2,35.2c0,19.4,15.8,35.2,35.2,35.2c19.4,0,35.2-15.8,35.2-35.2
		C573.6,911.2,557.8,895.4,538.4,895.4z"/>
	<path d="M538.4,889.2c-22.8,0-41.4,18.6-41.4,41.4c0,22.8,18.6,41.4,41.4,41.4c22.8,0,41.4-18.6,41.4-41.4
		C579.8,907.8,561.2,889.2,538.4,889.2z M538.4,965.8c-19.4,0-35.2-15.8-35.2-35.2c0-19.4,15.8-35.2,35.2-35.2
		c19.4,0,35.2,15.8,35.2,35.2C573.6,950,557.8,965.8,538.4,965.8z"/>
	<path d="M510.6,865.8c0.5,1.2,1.6,2,2.9,2c0.4,0,0.7-0.1,1.1-0.2c1.6-0.6,2.4-2.4,1.8-4l-8.5-22.5c-0.6-1.6-2.4-2.4-4-1.8
		c-1.6,0.6-2.4,2.4-1.8,4L510.6,865.8z"/>
	<path d="M597.4,908.6c0.5,1.2,1.6,2,2.9,2c0.4,0,0.7-0.1,1.1-0.2l28.3-10.7c1.6-0.6,2.4-2.4,1.8-4c-0.6-1.6-2.4-2.4-4-1.8
		l-28.3,10.7C597.6,905.2,596.8,907,597.4,908.6z"/>
	<path d="M474.7,951.7l-25.9,9.8c-1.6,0.6-2.4,2.4-1.8,4c0.5,1.2,1.6,2,2.9,2c0.4,0,0.7-0.1,1.1-0.2l25.9-9.8c1.6-0.6,2.4-2.4,1.8-4
		C478.1,951.9,476.3,951.1,474.7,951.7z"/>
	<ellipse class="st4" cx="218.7" cy="337.3" rx="4.3" ry="4.6"/>
	<circle class="st4" cx="620.4" cy="318.6" r="4.9"/>
	<path class="st6" d="M546.8,1078.2c-1,0-2,0.1-3,0.1c-51.7,0.4-122.3-37.7-166-91.6c19.5,55.6,67,98,125.5,110.4
		c11.3,2.4,23.1,3.7,35.1,3.7c5.3,0,10.6-0.3,15.8-0.7c52.4-4.8,98-33.6,125.8-75.2c-21.6,13.4-80.9,47.9-126.2,53
		C551.5,1078,549.1,1078.1,546.8,1078.2z"/>
	<path class="st6" d="M360.2,775.1l4.6,9.3l3.7,7.4l21.1,42.3c2.1-3.2,4.2-6.2,6.5-9.3l-40.9-88.5c-1.9,8.8-2.6,17.9-2.7,23.2
		l3.8,7.7L360.2,775.1z"/>
	<path class="st6" d="M512.6,755l-19.8-40.3c-2.2,3.8-3.9,7.2-5.2,9.9l2.1,4.2l4.8,9.5l9.2,18.1C506.8,755.9,509.7,755.4,512.6,755z
		"/>
	<path class="st6" d="M410.1,727.2c3.5,1.5,6.6,3.7,9.1,6.4l47.4-17.9c0.7-0.3,1.4-0.3,2.1-0.1c1.6-3.4,3.7-7.6,6.5-12.2L409.7,727
		C409.8,727.1,410,727.1,410.1,727.2z"/>
	<path class="st8" d="M186.5,1135.5c1.1,0.4,2.6,0.7,4.5,1c6.4,0.8,33.7-8.4,51.4-15.2c-1.8-1-3.6-2-5.4-3
		C228.6,1121.9,197.6,1134.8,186.5,1135.5z"/>
	<path class="st8" d="M524.2,1127.6c18.6,4.7,48.4,11.8,55.9,11.3c11.4-0.8,15.1-2,16.2-2.8c-0.1-0.2-0.3-0.5-0.7-0.9
		c-20.4-1.3-53.9-8.8-64.3-11.2C529.1,1125.2,526.7,1126.4,524.2,1127.6z"/>
	<path class="st8" d="M697,707l-0.3,9.1c19.1,6.9,36.3,11.1,40.5,9.6c-0.1-0.4-0.4-0.9-0.9-1.8C728.2,722.6,705.3,711.2,697,707z"/>
	<path class="st8" d="M42.1,796.3c-0.3,1.5-0.2,2.8,0.7,3.4c3,1.8,13.7,0.9,33.7-7.9c16.1-7,28.7-15,30.8-17.6
		c0.5-0.7,1.2-1.1,2-1.3l-1.7-12.3C107.6,760.5,77.4,786.2,42.1,796.3z"/>
	<path class="st6" d="M538.4,817.6c43.2,0,80.8,24.4,99.8,60c-5.5-15.5-17.5-41.6-38-52.6c-36.9-19.8-79.4-16.7-103.1-9.6l-0.4,3.2
		c-0.1,1.1-0.8,2-1.8,2.5c-0.4,0.2-0.8,0.3-1.2,0.3c-0.7,0-1.3-0.2-1.8-0.6l-3.1-2.3c-0.9,0.4-1.8,0.8-2.6,1.2
		c-12.4,6.3-41.2,29.5-48.8,60.4C455.9,843.1,494.2,817.6,538.4,817.6z"/>
	<path d="M742.7,720c-9.1-14.9-32.2-31.1-44.9-39.3l2.2-74.5c5.7-3.3,10.4-6.7,13.2-8.8c19.2-14.8,22.4-24.7,22.6-29.3
		c0.4-11.2-2.6-20.2-8.8-25.9c-1.3-1.2-2.7-2.2-4.3-3.1c1-7.6,1.7-13.8,1.9-15.2c0.7-5.8-3.5-11-9.2-11.7c-5.7-0.7-11,3.5-11.7,9.2
		c0,0.1-0.7,5.5-1.6,12.5l5-165.9c1-10.2,1.5-20.5,1.5-30.5c0-75.8-26.4-147.6-74.7-204.9c18.3-9.5,42.3-25.4,40.5-43.6
		c-1.2-12.6-9.4-24.8-24.3-36.1c-15.1-11.5-33.1-18.9-42.4-22.3c-5.6-2-11.1-1.6-16.4,1.3c-12.1,6.7-20.3,26-24.9,40.2
		c-51.7-34.5-112.5-53-176.1-53c-72,0-140.4,23.7-196.1,67.5C188,72.2,176.2,52.6,157,49c-14.6-2.8-37.6,7.7-52.5,23.7
		c-10.9,11.8-15.2,24.5-12.2,35.9c5.7,21.3,22,36.6,32.8,46.8c0.8,0.8,1.6,1.5,2.3,2.2c-36.1,52.5-55.5,114.7-55.5,179.8
		c0,10.1,0.5,20.3,1.5,30.5L77.6,546c-2.1-0.9-4.2-1.6-6.1-1.8c-2-0.2-6.3-0.3-10.4,3.1c-1.5-1.7-3.5-2.8-5.8-3.1
		c-2.6-0.4-5.2,0.2-7.4,1.8c-2.1,1.6-3.5,3.9-3.9,6.5c-0.4,2.6,0.2,5.2,1.8,7.4l6.4,8.8c-1.6,11.4-1,24.1,2,29.6
		c3.4,6.3,12.4,12.4,21.6,15.5c1,1.6,2.2,3.3,3.5,5L82.3,741c-2.1,1.4-4.3,2.8-6.5,4.4c-18.7,13.3-31.7,27.7-38.6,42.8
		c-4.9,10.7-1.7,15.6,1.9,17.7c2,1.2,4.7,1.8,7.9,1.8c9.7,0,23.9-5,36.7-11l1.7,69.9c0,77.6,32.7,151.2,91.9,207.2
		c11.9,11.2,24.5,21.5,37.9,30.7c-15.8,6-31.3,17.1-35.7,22c-3.9,4.3-3.4,8-2.7,9.8c1,2.8,4.2,6.4,13.5,7.6c0.5,0.1,1,0.1,1.5,0.1
		c12.5,0,49-14,56.4-16.9c0.9-0.3,1.5-1,1.9-1.8c8,4.1,16.1,7.8,24.4,11.2c37.3,15.3,76.3,23,115.9,23c39.6,0,78.4-7.9,115.4-23.5
		c2.7-1.1,5.4-2.3,8.1-3.6c9.3,2.5,52.8,13.7,65.7,13.7c0.4,0,0.8,0,1.2,0c12.9-0.9,20.8-2.4,22.8-7.7c0.8-2,0.9-5.1-2.8-9
		c-6.1-6.4-27.4-15.2-46.3-19.3c1.8-1.2,3.5-2.3,5.3-3.5c87.9-10.5,156.2-85.5,156.2-176.2c0-31.7-8.4-61.5-23-87.3l3.6-119.4
		c4.1,1.4,9,3.1,14.1,4.6c11.8,3.5,19.3,4.8,24.1,4.8c5,0,7.2-1.4,8.5-2.9C744.8,728.5,745.9,725.3,742.7,720z M703.9,563.5
		c0.4-1.8,0.8-4,1.2-6.5c0.2-1,0.3-2.1,0.5-3.2c0.2-1,0.3-2.1,0.5-3.2c0.4-2.9,0.9-5.8,1.3-8.8c0.1-1,0.3-2.1,0.4-3.1
		c0.1-1.1,0.3-2.1,0.4-3.1c1-7.5,1.7-13.4,1.7-13.5c0.3-2.2,2.1-3.8,4.3-3.8c0.2,0,0.3,0,0.5,0c2.4,0.3,4.1,2.4,3.8,4.8
		c-0.1,0.5-0.7,6.3-1.7,13.5c-0.1,1-0.3,2.1-0.4,3.1c-0.1,1-0.3,2.1-0.4,3.1c-0.4,2.9-0.8,5.9-1.3,8.8c-0.2,1.1-0.3,2.2-0.5,3.3
		c-0.2,1.4-0.4,2.7-0.6,3.9c-0.4,2.5-0.8,4.7-1.2,6.5c-0.5,2.3-2.8,3.8-5.2,3.3c-1.1-0.2-2.1-0.9-2.7-1.9
		C703.9,565.8,703.7,564.7,703.9,563.5z M705.9,574.7c0.5,0.1,0.9,0.2,1.4,0.2c-1.9,1.7-4.1,3.6-6.4,5.4l0.2-8.1
		C702.4,573.5,704.1,574.3,705.9,574.7z M126.3,632.1c-2.3-0.2-4.2-0.9-7-2.8c-6.2-4.3-14.6-12.2-20.3-18.3c0.2-0.3,0.4-0.6,0.5-0.9
		c3.3-6.5,6.7-14.3,8.3-21.4c6.2,4.9,17.5,14,26.7,21.7c-3.5,4.5-6.5,9.4-7.5,13.8C126.3,626.7,126.1,629.5,126.3,632.1z
		 M618.5,645.5c0.9-0.8,1.6-1.6,2.3-2.3c0.9-0.9,1.6-1.7,2.3-2.5c1.4-1.8,2.4-3.2,2.7-4.2l0.1-0.3l0-0.4c0.2-2.5,0.4-10.8-5-15.4
		c-0.3-0.3-0.7-0.5-1-0.7c1.2-2.1,2.9-4.1,5.2-6.1c0.2-0.2,0.4-0.3,0.6-0.5c0.3,0.2,0.6,0.4,0.8,0.7c5.9,4.9,8.9,13.5,8.1,23
		c0,0.5-0.1,1.1-0.3,1.7c-0.3,1.3-1,2.7-2.1,4.5c-0.8,1.3-1.8,2.7-3.1,4.2c-2,2.4-4.8,5.2-8.4,8.3c-0.9,0.8-1.9,1.6-2.9,2.4
		c-0.9,0.7-1.9,1.5-2.9,2.3c-2.8,2.1-5.9,4.4-9.5,6.9c-8.5,5.8-18.8,12-27.9,16.2c-1.2,0.6-2.4,1.1-3.6,1.6
		c-1.3,0.5-2.6,1.1-3.8,1.5c-2.2,0.8-4.3,1.4-6.1,1.7c-1.5,0.3-3,0.4-4.5,0.4c-1.2,0-2.3-0.1-3.4-0.3c-1.1-0.2-2.1-0.4-3.2-0.7
		c-1.8-0.6-3.4-1.4-4.9-2.5c-3.5-2.5-5.7-5.8-7.2-8.9c2.9-0.6,6-1.1,9.2-1.3c0,0,0,0,0,0c0.8,1.2,1.8,2.3,3,3.1
		c1.1,0.8,2.4,1.3,3.8,1.6c0.8,0.2,1.6,0.3,2.5,0.3c0.2,0,0.4,0,0.7,0c0.8,0,1.5-0.1,2.4-0.3c0.3-0.1,0.6-0.1,1-0.2
		c2.5-0.6,5.6-1.7,9.1-3.3c1-0.4,2-0.9,3.1-1.4c1-0.5,1.9-1,2.9-1.5c6.4-3.3,13.6-7.5,20.7-12.4c2.6-1.8,5-3.5,7.3-5.2
		c0.9-0.7,1.7-1.3,2.6-1.9c0.9-0.7,1.7-1.3,2.5-2C614.2,649.4,616.5,647.4,618.5,645.5z M617.4,625.6c2,2.2,2.5,6.1,2.4,9.1
		c-0.3,0.5-0.9,1.4-2.1,2.7c-0.1-0.1-0.1-0.2-0.2-0.2C616.9,635,616.2,630.6,617.4,625.6z M555.9,694.4c1.1,0.1,2.3,0.2,3.4,0.2
		c1.8,0,3.7-0.2,5.7-0.5c0.5-0.1,1-0.2,1.5-0.3c-4.3,7.9-10.4,16.1-16.9,23.4l-1.6-1.4l-2.8-6.7
		C548.9,704.5,552.7,699.4,555.9,694.4z M542.4,702.6l-7-16.6c0-0.1-0.1-0.2-0.1-0.3c0-0.1-1.5-2.9-4.5-6.6c1.3-0.5,2.6-1,4-1.5
		c1.8,4.1,4.8,8.8,9.6,12.3c1.6,1.2,3.4,2.1,5.2,2.8C547.5,695.8,545.1,699.2,542.4,702.6z M595.7,655.5
		c-6.3,4.3-12.8,8.2-18.6,11.2c-0.1-0.3-0.2-0.6-0.4-0.8c-2.6-5.4-7.1-9-13.5-10.9c8.3-8.2,21.2-19.5,32.5-26
		c-0.4,9.2,2.2,16.1,2.4,16.7l0.2,0.5l0.5,0.9c0.7,1.2,1.7,2.6,3,4C600,652.6,597.9,654,595.7,655.5z M596.7,621.5
		c-16.9,8.3-36.4,27.7-40.9,32.2c-2.2-0.2-4.6-0.2-7.1,0c-1.2,0.1-2.3,0.2-3.5,0.3l2.3-4.2l0.4-0.4c1.2-1.3,30.2-31.9,52.8-38.8
		C598.7,614.3,597.5,618,596.7,621.5z M549.1,659.9c1-0.1,1.9-0.1,2.9-0.1c0.1,0,0.1,0,0.2,0c1.1,0,2.2,0,3.3,0.1
		c1.2,0.1,2.3,0.2,3.3,0.4c6.2,1.1,10.3,3.8,12.4,8.2c0.2,0.3,0.3,0.6,0.4,1c-3.1,1.5-5.8,2.6-8,3.2c-0.1-0.2-0.1-0.3-0.2-0.5
		c-1-2.2-4.2-3.5-9.1-3.7c-1.1-0.1-2.3-0.1-3.5,0c-0.4,0-0.7,0-1.1,0c-0.8,0-1.6,0.1-2.4,0.2c-3,0.3-5.8,0.7-8.6,1.3
		c-1,0.2-2,0.5-3,0.8c-1,0.3-2,0.6-3,0.9c-2.2,0.7-4.3,1.6-6.4,2.5c-2.4,1.1-4.7,2.3-6.8,3.6c-19.5,11.6-31.1,31.2-36.6,42.4
		c-0.9,2-1.7,3.7-2.3,5c-0.1,0.3-0.4,1-0.6,1.9c-0.1,0.9-0.1,1.9,0.4,2.9c0.6,1.1,1.7,2,3,2.8l4.5,8.8l-0.3,2.1
		c-4.2-1-11.5-3.6-14.7-9.3c-1.2-2.2-2.3-5.5-1.1-9.9c0.2-0.8,0.5-1.6,0.8-2.4c0.5-1.2,1.2-2.8,2-4.5c5.4-11.4,17.1-31.8,37.1-45
		c2.3-1.5,4.7-2.9,7.2-4.2c4.5-2.4,9.4-4.3,14.6-5.8c1.3-0.4,2.7-0.7,4.1-1c1.3-0.3,2.6-0.5,3.9-0.7
		C544,660.4,546.5,660.1,549.1,659.9z M475.2,703.3c-2.8,4.6-4.9,8.9-6.5,12.2c-0.7-0.2-1.4-0.1-2.1,0.1l-47.4,17.9
		c-2.6-2.7-5.6-4.9-9.1-6.4c-0.1-0.1-0.3-0.1-0.4-0.2c-11.8-4.8-29.4-10.3-42.8-14.1c12.5-8.1,82.1-32.2,117.4-43.9
		c8.1-1.6,14.9-1,20.7,0.7C491.3,679.6,481.6,692.5,475.2,703.3z M407.8,732.9c1.9,0.8,3.5,1.8,5.1,3.1c2,1.7,3.8,3.7,5.2,6
		c3.1,4.9,4.8,10.7,5.2,16.1c0.5,7.2-1.4,13.2-5,15.3l-0.4,0.2l-5.4-9.7l1.7-2.1l0.2-0.5c0.5-1.7-0.2-5.1-2.2-8.8
		c-1.2-2.3-3-4.8-5.3-7.2c-3.1-3.2-7.1-6.2-12.1-8.3c-11.4-4.7-25.8-9.2-36.2-12.2c-2.7-0.8-5.1-1.5-7.1-2c-3.4-0.9-5.8-1.6-6.6-1.8
		l0,0l-0.3-0.1c-0.9-0.1-1.9-0.3-2.9-0.4c-1-0.1-2.1-0.2-3.1-0.2c-0.7,0-1.3,0-2,0c-2,0-3.8,0.1-5.5,0.3c-1.1,0.1-2.1,0.3-3,0.6
		c-1.1,0.3-2.1,0.6-3,1c-0.7,0.3-1.3,0.7-1.9,1.1c-1.7,1.2-2.6,2.7-3,4.7l-0.1,0.4c-0.4,2.5-0.8,4.8-1.1,7.1c-0.4,0.2-0.7,0.4-1,0.5
		c-0.2,0.1-0.4,0.2-0.5,0.2c-0.9,0.2-3,0.2-6.1-0.1c0.4-3,0.9-6,1.4-8.9l0.1-0.4c0.6-3.9,2.7-7.3,6-9.6c1.2-0.9,2.6-1.6,4-2.1
		c1-0.4,2-0.7,3-1c1-0.3,2-0.5,3.1-0.6c2.6-0.4,5.3-0.6,7.7-0.6c1.2,0,2.3,0,3.3,0.1c1.3,0.1,2.4,0.2,3.4,0.3
		c1.6,0.2,2.6,0.4,2.8,0.4c0.1,0,0.2,0,0.3,0.1c0.1,0,3.3,0.9,8.2,2.2c2.2,0.6,4.6,1.3,7.4,2.1C375.6,721.8,395.2,727.7,407.8,732.9
		z M345.4,762l0.7,1.5c-7.7-2.9-15.1-6-19-8.2c-0.5-0.3-1-0.7-1.4-1.3c0.1,0,0.2-0.1,0.3-0.1c14-6.1,19-17.7,19.1-25.8
		c0-0.2,0-0.5,0-0.7c1.1,0.3,2.5,0.7,4.2,1.2c-4.2,14.7-4.4,30.8-4.4,31.8C345,760.9,345.2,761.5,345.4,762z M325.5,707.7
		c-1.8-2.2-4.1-4.1-6.7-5.8c-10.1-6.4-32-13.6-36.3-14.9l-0.5-0.1c-2.6-0.4-5.2-0.7-7.8-0.9c0.3-2.5,0.2-5-0.5-7.5
		c3.1,0.2,6.4,0.6,9.9,1.1c0.2,0,0.4,0.1,0.6,0.1c1.1,0.3,26.8,8.4,38.6,15.9c4.7,3,8.4,6.6,11.1,11
		C331.1,706.7,328.3,707.1,325.5,707.7z M280.7,692.9c3.5,1.1,25.3,8.2,34.7,14.2c1.4,0.9,2.6,1.8,3.6,2.7c-1.3,0.6-2.5,1.3-3.7,2.1
		c-4.7,3.3-7.6,8-8.6,13.6l-0.1,0.4c-0.5,2.8-1,5.9-1.4,9c-8.1-1.5-19.1-4.4-30.6-9.4c-8.9-3.9-13.3-5.8-16.1-8
		c4.8-2.8,7.1-7.1,8.1-10.9c0.5-1.8,1.5-4,2.7-6.5c1.1-2.3,2.4-5.1,3.3-8.1C275.4,692.3,278.1,692.6,280.7,692.9z M267.9,685.6
		c-0.1,1-0.3,2-0.6,3.1c-0.3,1-0.6,2-1,3.1c-0.7,1.9-1.6,3.8-2.5,5.8c-1.2,2.7-2.4,5.2-3,7.5c-0.9,3.5-2.9,6.1-6.1,7.6
		c-0.7-1.3-1.4-2.8-2.4-4.6c-0.3-0.7-0.5-1.5-0.7-2.2c0.9-0.6,1.6-1.5,1.9-2.7c0.8-2.9,2.1-5.9,3.5-8.8c0.1-0.3,0.2-0.5,0.4-0.8
		c0.8-1.7,1.5-3.2,2-4.7c0.4-1.2,0.8-2.2,1-3.2c0.5-2.6,0.1-4.7-1.8-6.6c-0.2-0.2-0.4-0.4-0.6-0.5c-0.8-0.8-1.8-1.6-2.8-2.6
		c-0.8-0.8-1.8-1.6-2.7-2.4c-10.3-9.1-26.9-22.9-32.8-26c-1.6-0.8-3.3-1.5-5.1-1.9c-1.1-0.3-2.3-0.5-3.4-0.6
		c-1.1-0.1-2.2-0.2-3.3-0.2c-3.1,0.1-5.7,0.8-6.9,2.3l-0.1,0.1l-0.8,1c-0.5,0.7-1.1,1.3-1.6,2c-0.9,1.2-1.8,2.3-2.6,3.3
		c-2.8,3.7-4.6,6.4-5.6,8.4c-2.7,0.9-5.6,1.5-8.2,1.2c0.9-5,5.7-11.4,11.5-18.7c0.2-0.3,0.5-0.6,0.7-0.9l0.9-1.1
		c0.2-0.3,0.5-0.5,0.8-0.8c0.8-0.8,1.6-1.4,2.6-2c2-1.2,4.5-1.9,7.1-2.2c0.9-0.1,1.8-0.2,2.8-0.2c0.1,0,0.3,0,0.4,0
		c1.1,0,2.2,0.1,3.3,0.2c3.8,0.5,7.7,1.7,10.9,3.4c8,4.2,30.2,23.2,38.7,31c0.7,0.7,1.4,1.3,1.9,1.7c0.4,0.4,0.8,0.8,1.2,1.2
		c0.9,1,1.5,2,2,3.1C268,680.5,268.2,683,267.9,685.6z M176.4,660.5c-4.8-3.2-12.4-9.3-20.2-15.9c2.6-2.5,4.4-5,5.4-6.4l0.1-0.2
		c0.1-0.2,0.2-0.3,0.3-0.4c1.9-2.4,4.7-8.6,5.2-15.1l23.2,16.1l-0.9,1.1C183.2,647.5,178.1,654.3,176.4,660.5z M195.2,634.5
		l-29.2-20.3c-0.2-0.7-0.5-1.3-0.9-1.9c-1-1.9-5-5.8-10.3-10.6c0.8-0.2,1.7-0.3,2.5-0.3c2.7,0,5.2,1,7.6,2.9l37.5,26.1
		c0.4,0.3,0.7,0.6,1,1.1C200.4,632.1,197.6,633.1,195.2,634.5z M156.9,612c1.5,1.5,2.5,2.6,2.8,3.2c0.5,0.9,0.8,1.8,1,2.8
		c1.3,6.1-2.1,13.7-3.6,15.7c-0.1,0.2-0.3,0.4-0.5,0.7l-0.1,0.2c-1,1.5-2.7,3.8-5,5.9c-1.6-1.4-3.1-2.7-4.6-4
		c-0.1-0.5-0.2-1-0.3-1.5c1.7-1.6,2.9-3.4,3.9-4.7c0.3-0.4,0.6-0.8,0.8-1.1l0.3-0.3l0,0c1.3-2,2.5-6.7,2.1-9.1l-0.1-0.9l-0.2-0.2
		l-0.4-0.4c-0.4-0.5-1-1.1-1.8-1.8c-0.7-0.6-1.4-1.3-2.3-2.1c-1.6-1.4-3.5-3-5.6-4.8c-0.8-0.6-1.6-1.3-2.4-2c-0.8-0.7-1.6-1.3-2.4-2
		c-11.2-9.3-25.2-20.6-29.8-24.1c0-2-0.2-3.8-0.8-5.4c-0.5-1.5-1.5-3.4-2.9-5.5c2.4,1,4.9,2.5,7.6,4.5c6.1,4.7,20.2,15.9,31.4,25.4
		c0.8,0.7,1.6,1.4,2.4,2c0.8,0.7,1.6,1.4,2.4,2.1c2.2,1.9,4.1,3.6,5.8,5.1C155.4,610.5,156.2,611.3,156.9,612z M132.9,625.5
		c0.8-3.3,3.3-7.4,6.2-11.2c2.1,1.8,4.1,3.5,5.6,4.8c-2.2,2.9-4.1,5.9-4.6,8.1c-0.3,1.4-0.4,3.1-0.2,4.8c0.1,1.1,0.2,2.1,0.4,3.1
		c0.2,1.2,0.4,2.2,0.6,3c0.1,0.3,0.2,0.6,0.2,0.9l0.2,0.9l0.7,0.6c1.3,1.1,2.6,2.3,4.1,3.6c0.8,0.7,1.6,1.4,2.5,2.2
		c0.8,0.7,1.6,1.4,2.5,2.1c8.8,7.5,19.2,15.9,24.6,18.9c0.5,0.3,0.9,0.5,1.3,0.7c0.6,0.3,1.3,0.5,1.9,0.7c1.1,0.3,2.1,0.5,3.2,0.6
		c0.5,0,1,0.1,1.5,0.1c2,0,4-0.3,5.9-0.8c1-0.3,2.1-0.6,3-0.9c1-0.3,1.9-0.7,2.8-1c0.1,0,0.1,0,0.2-0.1c0.8-0.3,1.6-0.6,2.3-0.8
		l1.1-0.3l0.6-1c1.2-1.9,2-5.6,2.3-8.7c0.9-1.1,1.8-2.4,3-3.7l0.7-0.8c0.6-0.2,2-0.4,3.8-0.3c0.1,0.6,0.2,1.2,0.2,1.6
		c0,0.2,0,17.7-8.9,20.3c0,0,0,0,0,0c-0.8,0.2-1.8,0.6-2.8,1c-0.2,0.1-0.5,0.2-0.7,0.3c-1.1,0.4-2.3,0.8-3.6,1.2
		c-2.6,0.8-5.6,1.5-8.9,1.6c-0.3,0-0.7,0-1,0c-0.9,0-1.8,0-2.6-0.1c-1.3-0.1-2.5-0.4-3.7-0.7c-1.1-0.3-2.3-0.7-3.4-1.2
		c-6.2-2.9-19.9-14.1-30.6-23.3c-1.1-0.9-2.1-1.8-3.1-2.7c-1.2-1.1-2.4-2.1-3.5-3.1c-0.3-0.3-0.7-0.6-1-0.9c-0.5-0.4-0.8-1-1-1.6
		c-0.4-1.3-0.9-3-1.3-5c-0.2-1-0.4-2-0.5-3.1c-0.1-1-0.2-2-0.3-3.1C132.3,629.8,132.4,627.5,132.9,625.5z M199.6,679.7
		c11.9,8.6,24.4,17.3,32.2,22.5c-0.3,3.1,0,6.2,0.7,9.2c-6-3.6-17.8-11.6-42-29C194.1,681.7,197.2,680.6,199.6,679.7z M206.3,676.9
		c9.4-6.4,9.4-23.1,9.4-24.4c0.3,0.1,0.7,0.3,1,0.5c4.6,2.5,19.4,14.5,30,23.7c-3.7,2.8-8.1,7.3-11.2,13.2c-1,1.9-1.8,3.8-2.4,5.6
		C226.5,691.2,216.9,684.5,206.3,676.9z M238,702.5c0.1-1.1,0.3-2.2,0.6-3.3c0.5-2.1,1.3-4.2,2.4-6.3c3-5.6,7.2-9.7,10.5-11.9
		c1.1,1,2.1,1.9,2.9,2.7c0.2,0.7-0.6,2.8-2.2,6.3c-2.6,2.7-5.4,6.6-6.5,11c-0.2,1-0.4,2-0.4,3.1c0,1,0,2.1,0.2,3.1
		c0.2,1.2,0.6,2.4,1.2,3.5c0.7,1.3,1.2,2.5,1.8,3.6c0.6,1.1,1.1,2,1.6,2.9c0.6,1,1.3,1.9,2,2.8c3.3,3.7,8.1,5.9,20.1,11.2
		c10.8,4.7,22.9,8.2,32.4,9.9c1.1,0.2,2.1,0.3,3,0.5c1.1,0.2,2.1,0.3,3.1,0.4c1.8,0.2,3.4,0.3,4.7,0.3c1,0,1.9-0.1,2.7-0.2
		c0.6-0.1,1.1-0.2,1.6-0.4l0.1,0l0.1-0.1l0.1-0.1c0.1-0.1,0.2-0.1,0.4-0.2c0.1,0,0.4-0.2,0.9-0.5c0.8-0.4,2-1.1,3.3-2.1
		c3.1-2.2,6.8-6,6.8-11c0-0.4,0-0.9,0-1.3c1.4-0.2,3.1-0.3,4.9-0.3c0.8,0,1.7,0,2.5,0.1c0,0.5,0,1,0,1.6c-0.1,10.3-9,17.2-14.7,19.9
		c-0.2,0.1-0.5,0.2-0.7,0.3l-0.1,0.1c-0.6,0.3-1.4,0.6-2.2,0.8c-0.9,0.2-1.9,0.4-3,0.5c-1,0.1-2,0.1-3.1,0.1c-1.4,0-2.9-0.1-4.4-0.2
		c-1-0.1-2-0.2-3.1-0.3c-1-0.1-2-0.3-3.1-0.4c-11.6-1.9-25.4-6.3-35.3-10.6c-16.7-7.3-21.3-9.8-25.7-17.3c-0.6-1-1.1-2-1.7-3.2
		c-0.5-1-1.1-2.1-1.6-3.2c0-0.1-0.1-0.2-0.1-0.3c-1.2-2.5-1.9-5.2-2.1-7.9C237.9,704.9,237.9,703.7,238,702.5z M315.1,755.9
		c1.6,0,3.1-0.1,4.5-0.3c1,2.2,2.4,3.9,4.5,5.1c5.4,3,16.1,7.3,26,10.9l4.7,9.5c-12.2-4.2-27.6-10.2-34.4-14
		c-4.8-2.7-7.4-6.7-8.8-11.4C312.9,755.8,314.1,755.9,315.1,755.9z M352.5,759.5c0.1-5.3,0.8-14.4,2.7-23.2c0.4-1.9,0.9-3.9,1.4-5.7
		c10.3,3,24.6,7.4,35.9,12.1c5.6,2.3,9.5,5.9,12,9.2l-2.2,6.2c-0.4,1-0.3,2.1,0.3,3.1l1.8,3.2l3.3,5.8l5.3,9.4l3.2,5.8l6.3,11.2
		c-9.7,8.4-18.5,17.9-26.2,28.2c-2.3,3-4.4,6.1-6.5,9.3l-21.1-42.3l-3.7-7.4l-4.6-9.3l-3.9-7.9L352.5,759.5z M421.1,779.2l0.8-1
		c5.4-3.5,8.2-11.2,7.5-20.7c-0.4-5.8-2.2-12.2-5.5-17.8l41.7-15.7c-1.2,5.8,0.3,10.3,2,13.4c5.8,10.2,19.6,12.6,22.3,13l2.8,0.4
		l3.7,7.4c-25.3,6.2-48.6,17.8-68.4,33.5L421.1,779.2z M494.7,738.4l-4.8-9.5l-2.1-4.2c1.3-2.7,3-6.1,5.2-9.9
		c6.2-10.6,16.3-24,31.1-32.3c2.8,3.3,4.3,5.9,4.6,6.6l8.4,19.9l3.6,8.5L556,754c-5.8-0.6-11.7-0.9-17.6-0.9
		c-8.8,0-17.4,0.6-25.8,1.9c-2.9,0.4-5.9,0.9-8.7,1.5L494.7,738.4z M551.5,724.2l0.5-0.5c12.1-13.2,19-24,22.7-32.6
		c11.1-4.4,24.4-12.3,34.1-19c5.2-3.6,9.7-7,13.6-10.2c1.3,0.2,2.7,0.3,4.1,0.3h0c13.9,0,30-13,41-23.9c1.8-1.8,15.2-15.2,21-26.3
		c1.3-0.5,2.6-1.1,3.9-1.7l-6.7,221.6c-27.3-40.6-70.8-69.3-121.2-76.8L551.5,724.2z M663.2,633.9c-13,12.9-24.9,20.5-33.9,21.8
		c4.9-4.8,8.3-9.3,10-13.4c9.8-6.2,20.8-17.1,28.4-26.2c0.7,0,1.4,0.1,2.1,0.1c1.3,0,2.7-0.1,4.1-0.3c1.8-0.2,3.7-0.6,5.5-1
		C675.2,621.1,669.1,628.1,663.2,633.9z M640.8,633.8c0-10.1-3.7-19.2-10.4-24.8c0,0,0,0,0,0c7.9-6.6,14-11.1,18.7-14.1
		c-0.2,4.6,0.6,9.5,3.6,13.7c1.6,2.2,4.1,4.6,7.9,6.1C655,621.1,647.6,628.4,640.8,633.8z M654.3,585c-1.2,0.5-2.5,1.2-3.8,1.9
		c-7.8,4.2-17.1,11.5-25.5,18.6c-0.9,0.7-1.8,1.5-2.6,2.2c-0.4,0.4-0.9,0.8-1.3,1.1c-0.5,0.4-0.9,0.8-1.3,1.2
		c-2.6,2.4-4.4,5-5.8,7.6c-0.5,1-1,2-1.4,3c-0.4,1-0.7,2.1-1,3.1c-1.9,7.5-0.4,14,0.2,15.8l0.2,0.5l0.3,0.4c0.2,0.3,0.6,0.8,1.1,1.3
		c-1.8,1.6-4,3.5-6.6,5.6c-1.1-1.2-1.9-2.4-2.5-3.4l-0.2-0.3l-0.1-0.3c-0.2-0.5-3-8.1-1.7-17.7c0.2-1.2,0.4-2.3,0.7-3.5
		c0.3-1.2,0.6-2.4,1-3.6c1.1-3.2,2.8-6.5,5.2-9.7c0.8-1.1,1.7-2.2,2.7-3.2c0.9-1,2-2,3.1-3c0.2-0.2,0.4-0.3,0.5-0.5
		c12.6-10.9,25.5-21.1,36.4-25.6c1.3-0.5,2.5-0.9,3.7-1.3c1.4-0.4,2.7-0.7,4-0.8c0.8-0.1,1.5-0.1,2.3-0.1c2.7,0,5.4,0.8,8,2.2
		c0.9,0.5,1.8,1.1,2.6,1.7c0.8,0.6,1.6,1.3,2.4,2c0.8,0.7,1.6,1.5,2.4,2.4c2.4,2.7,4.3,5.8,5.7,8.9c-2.8,1.3-5.6,2.3-8.2,2.9
		c-0.8-1.6-1.8-3.3-2.9-4.8c-0.3-0.5-0.7-0.9-1.1-1.3c-0.4-0.4-0.8-0.8-1.2-1.2c-0.8-0.8-1.6-1.5-2.5-2.1c-1.8-1.3-3.7-2-5.3-2
		c-1.2,0-2.6,0.2-4.1,0.7C656.6,584.1,655.5,584.5,654.3,585z M681.8,578.6c-0.9-1-1.8-2-2.8-2.9c3.9-4.1,9.3-9.4,14.9-13.4
		l-0.7,23.3c-1.6,1.1-3.3,2.1-4.9,3C686.7,585.2,684.5,581.7,681.8,578.6z M674.1,572c-2.8-1.7-5.7-2.9-8.7-3.4c0,0,0.1-0.1,0.1-0.1
		c7.4-7.9,20.7-22.1,35.5-25.7c-0.5,3.2-0.9,6.5-1.4,9.5C689.8,556.1,680.1,565.6,674.1,572z M132.8,163c0.5,0.6,1,1.2,1.4,1.7
		c0.7,1.1,1.9,1.7,3.1,1.7c0.7,0,1.4-0.2,2.1-0.6c1.7-1.1,2.2-3.4,1-5.1c-2-3-5.6-6.3-10.1-10.6c-10.8-10.2-25.5-24.1-30.7-43.3
		c-3.2-11.9,5.2-23.3,10.4-28.9c12.9-13.9,33.8-23.7,45.6-21.4c25.6,4.8,36.7,47.2,36.8,47.6c0.5,2,2.5,3.2,4.5,2.7
		c2-0.5,3.2-2.5,2.7-4.5c-0.1-0.5-1-3.7-2.6-8.3c54.8-43.6,122.2-67.3,193.3-67.3c62.9,0,122.9,18.6,173.9,53.1
		c-1.4,5-2.1,8.5-2.2,9c-0.4,2,0.9,4,2.9,4.4c2,0.4,4-0.9,4.4-2.9c2.5-11.8,11.9-44,25.8-51.7c3.3-1.9,6.7-2.1,10.2-0.8
		c28.5,10.4,59.7,29.5,61.9,52.1c1.8,18.6-39.3,38.7-55.4,44.8c-1.9,0.7-2.9,2.9-2.1,4.8c0.6,1.5,2,2.4,3.5,2.4
		c0.4,0,0.9-0.1,1.3-0.2c1.6-0.6,6.5-2.5,12.7-5.5c48,56.2,74.2,126.9,74.2,201.6c0,9.9-0.5,19.9-1.4,30l0,0.1l-5.2,170.8
		c-14.4,5.5-26.6,18.4-33.7,26c-1,1-2.7,2.9-3.2,3.3c-0.6,0.4-1.1,0.9-1.6,1.3c-12.5,2.6-27.2,13.4-44.9,28.8
		c-2.1,1.8-3.9,3.7-5.5,5.5c-1.7,0.3-3.5,0.6-5.4,1.2c-24.5,6.6-55.6,39.6-57,41l-0.9,1l-5,9c-9.4,1.8-17.7,5.2-25.1,9.5
		c-7.8-3.6-17.8-5.5-29.9-3c-0.1,0-0.3,0.1-0.4,0.1c-4.2,1.4-103.7,34.5-119.6,45c-1.5,1-2.9,2.2-4.2,3.7
		c-6.2-1.8-10.3-2.8-10.5-2.9c-0.2-0.1-0.5-0.1-0.7-0.2c-0.7-0.1-3-0.5-6.3-0.7c-3.2-6.6-8.1-12-14.9-16.3
		c-12.3-7.7-37.2-15.7-40-16.6c-0.5-0.2-1-0.3-1.5-0.3c-3.8-0.6-8.8-1.2-14-1.4c-0.7-0.9-1.5-1.8-2.5-2.7
		c-7.1-6.7-32.5-28.7-42-33.8c-5.4-2.9-10.9-4.2-16-4.4c-0.1-0.3-0.2-0.5-0.3-0.8c-0.7-2-2-3.7-3.7-4.9l-37.2-25.9
		c-5.8-4.7-12.4-5.5-19.4-2.5c-14.3-12.2-32.9-26.7-33.2-26.9c-6-4.6-11.4-6.9-17.2-7.2c-4-4.5-8.9-9.1-13.9-12.6l-4.3-182.7l0-0.3
		c-1-10-1.4-20.1-1.4-30C79.3,274.3,98,214,132.8,163z M59.7,595.3c-1.8-3.3-2.4-11.1-1.9-19.1l7.5,10.2c0.2,2.3,0.5,4.1,0.8,5.1
		l0.2,0.5c1,1.8,3.4,3.7,6.3,5.4c0,2.3,0.1,4.4,0.2,6.2c0,0.7,0.1,1.4,0.1,1.9c0,0.2,0,0.3,0,0.5C66.8,602.9,61.6,598.8,59.7,595.3z
		 M73.1,586.5c-0.2-0.1-0.3-0.3-0.4-0.5l-1.3-1.8l-3.1-4.3l-2.9-4l-6.4-8.7l-2.5-3.4l-2.4-3.3l-3.1-4.3c-0.6-0.8-0.8-1.8-0.7-2.8
		c0.2-1,0.7-1.8,1.5-2.4c0.6-0.5,1.4-0.7,2.2-0.7c0.2,0,0.4,0,0.6,0c1,0.2,1.8,0.7,2.4,1.5l0.3,0.4l2,2.8l2.1,2.9l5.4,7.4l2.5,3.4
		l2.6,3.6l3.4,4.6C74.1,579.9,73.4,583.1,73.1,586.5z M72.5,558.6l-2.8-1.3l-0.4,1l-4.3-5.9c1.8-1.6,3.7-2,5-2c0.3,0,0.6,0,0.9,0.1
		c5.9,0.7,13.9,6.8,20.4,13.3c0.9,0.9,1.7,1.8,2.5,2.7c0.9,1,1.7,1.9,2.5,2.8c2.5,3.1,4.5,5.9,5.4,8.1c0.1,0.3,0.2,0.6,0.3,0.8
		c0.3,0.8,0.4,1.8,0.5,2.9c0,1,0,2.2-0.2,3.5c-0.8,5.4-3.4,13-7.7,21.6c-0.9-1-1.5-1.9-1.9-2.5l0-0.7c-0.2-4.7-0.1-8.3,0-11
		c1.2-3.2,2.1-6.3,2.4-8.7c0.1-0.7,0.1-1.4,0.1-2l0-0.5l-0.2-0.5c0-0.1-0.1-0.1-0.1-0.2c-0.3-0.7-0.9-1.6-1.7-2.8
		c-1.2-1.7-3-3.9-5.1-6.2c-0.7-0.8-1.5-1.6-2.3-2.4c-0.4-0.4-0.9-0.8-1.3-1.3c-0.4-0.3-0.7-0.7-1.1-1
		C79.3,562.8,75.4,559.9,72.5,558.6z M77.3,569.3c0.3,0.2,0.6,0.5,0.9,0.8l0,0.4L77.3,569.3z M82.2,612.2c-1-1.5-1.7-2.7-2.2-3.7
		c-0.8-1.6-1-2.7-1-3.3c0-0.5,0-1.2-0.1-2c0-0.9-0.1-1.9-0.1-2.9c0-1.1-0.1-2.2-0.1-3.4c0-1.1,0-2.2,0-3.4c0-0.1,0-0.3,0-0.4
		c0-1.1,0.1-2.3,0.2-3.5c0.3-3.6,0.8-7.2,1.9-10.3c0.4-1.2,0.9-2.3,1.4-3.3c0.2-0.4,0.5-0.9,0.8-1.3c2.4,2.5,4,4.6,5,6
		c-0.7,1.8-1.4,4.7-1.7,9.6c-0.1,2.3-0.2,5.1-0.1,8.4c0,1.1,0,2.2,0.1,3.5c0,0.2,0,0.4,0,0.7l0.1,2.1l0.3,0.6
		c0.4,0.9,1.4,2.3,2.7,3.9c0.7,0.8,1.5,1.8,2.3,2.7c0.7,0.8,1.5,1.7,2.3,2.5c6.3,6.8,15.3,15.2,21.7,19.5c4.5,3.1,7.7,3.9,11.3,4
		c0.6,3.4,1.5,6,1.8,6.9c0.1,0.2,0.2,0.4,0.2,0.6c-0.3,0-0.5,0-0.8,0c-5.4,0-10.3-0.9-16.7-5.3c-0.1-0.1-8.4-6.4-16.9-14.5
		c-4.4-4.1-7.5-7.6-9.8-10.3C83.8,614.4,82.9,613.3,82.2,612.2z M191,1136.5c-1.9-0.3-3.4-0.6-4.5-1c-2-0.7-2.8-1.5-2.9-1.8
		c-0.1-0.2,0.2-1.1,1.3-2.3c3.9-4.3,21.9-17,38-21.8c4.7,3,9.4,5.9,14.2,8.6c1.8,1,3.6,2,5.4,3
		C224.8,1128.1,197.5,1137.4,191,1136.5z M502.8,1129.3c-36.1,15.2-74,22.9-112.5,22.9c-75.9,0-151.7-30.5-208-83.7
		c-53.1-50.2-84.3-114.9-89-183.7c-0.4-6.1-0.6-12.1-0.6-18.2l-1.7-73.4c11.1-5.8,20.1-11.6,22.3-14.4c1.3-1.6,1-4-0.7-5.2
		c-0.9-0.7-1.9-0.9-2.9-0.7c-0.1,0-0.2,0.1-0.4,0.1c-0.8,0.2-1.5,0.6-2,1.3c-2,2.6-14.7,10.6-30.8,17.6c-20,8.8-30.7,9.8-33.7,7.9
		c-0.9-0.5-1-1.9-0.7-3.4c0.4-1.9,1.3-4,1.7-4.9c14.2-30.8,53.5-51,60-54.1c0.5-0.3,0.9-0.4,0.9-0.4c1.9-0.9,2.7-3.1,1.8-4.9
		c-0.9-1.9-3.1-2.7-4.9-1.8c-0.3,0.1-5.1,2.3-12,6.4L87,627.3c9.7,9.8,20.8,18.2,21,18.3c8.2,5.6,14.6,6.4,20.3,6.4
		c1.2,0,4.9-0.1,6.1-0.1c8.2,7.2,28,24.4,36.9,28.5c3.2,1.5,6.7,2.4,10.3,2.6c0.9,1,1.9,1.9,3.1,2.7c39.4,28.6,47.9,33.4,51.4,34.3
		c6.4,12.4,11,15.1,30.7,23.7c10.5,4.6,25.6,9.5,38.5,11.3c1.4,7.1,4.9,13.4,12.2,17.5c8.6,4.8,28.3,12.2,41.3,16.4l26.1,52.5
		c-15.3,26.2-24.1,56.7-24.1,89.2c0,81.3,54.9,150,129.6,170.9c15.3,4.3,31.3,6.6,47.9,6.6c1.9,0,3.9,0,5.8-0.1
		C531,1116.1,517.2,1123.3,502.8,1129.3z M595.4,1134.7c0.1,0.1,0.3,0.3,0.4,0.4c0.3,0.4,0.5,0.7,0.7,0.9c-1.1,0.8-4.8,2.1-16.2,2.8
		c-7.5,0.5-37.3-6.5-55.9-11.3c2.4-1.2,4.8-2.5,7.2-3.7c4.6-2.5,9.2-5,13.6-7.7C564.2,1119,589.9,1129,595.4,1134.7z M708.5,930.6
		c0,34.8-10.5,67.2-28.5,94.1c-27.8,41.6-73.4,70.4-125.8,75.2c-5.2,0.5-10.5,0.7-15.8,0.7c-12,0-23.8-1.3-35.1-3.7
		c-58.5-12.3-106-54.8-125.5-110.4c-6.1-17.6-9.5-36.4-9.5-56.1c0-93.8,76.3-170.1,170.1-170.1S708.5,836.8,708.5,930.6z
		 M691.3,603.9c-1.1,0.6-2.2,1.1-3.4,1.6c-1.3,0.6-2.5,1.1-3.8,1.6c-3.6,1.3-7.2,2.3-10.8,2.7c-0.2,0-0.5,0-0.7,0.1
		c-1.4,0.1-2.7,0.2-3.9,0.1c-1.3-0.1-2.5-0.2-3.6-0.5c-3.1-0.8-5.5-2.3-7.2-4.6c-3-4.1-2.8-9.5-1.9-13.9c2.7-1.3,4.6-1.7,5.8-1.7
		c0.3,0,1.5,0.5,3,1.9c-0.8,3.1-1.2,6.5,0,8.4l0.9,1.4h1.2c0.8,0.2,1.8,0.3,2.9,0.3c0.2,0,0.4,0,0.6,0c0.6,0,1.2-0.1,1.9-0.1
		c0.4,0,0.8-0.1,1.2-0.2c1-0.2,2-0.4,3-0.6c2.7-0.7,5.5-1.7,8.3-2.9c1-0.4,1.9-0.9,2.9-1.3c0.9-0.5,1.9-1,2.8-1.5
		c14.6-7.9,28.4-20.7,30.4-26.7l0.1-0.4l0-0.4c0.1-3.5-0.2-6.5-1-8.9c0.6-3.8,1.3-8.1,1.8-12.3c0.3,0.3,0.7,0.5,1,0.8
		c4.8,4.4,7.2,11.7,6.8,21.1c-0.1,2.2-1.8,10.5-20.2,24.6C705.9,595.2,699.2,600,691.3,603.9z M696.7,716.1l0.3-9.1l0.5-17.6
		c12.5,8.4,31.4,22.2,38.8,34.4c0,0,0,0,0,0c0.5,0.8,0.7,1.4,0.9,1.8C733,727.2,715.8,723,696.7,716.1z"/>
	<path d="M493.7,821.4c0.4,0,0.8-0.1,1.2-0.3c1-0.4,1.7-1.4,1.8-2.5l0.4-3.2l2.8-24.4c0.1-1.1-0.3-2.2-1.2-2.8
		c-0.9-0.7-2.1-0.8-3.1-0.3l-12.8,5.6l-12.8,5.6c-1,0.4-1.7,1.4-1.8,2.5c-0.1,1.1,0.3,2.2,1.2,2.8l19.3,14.2l3.1,2.3
		C492.4,821.2,493.1,821.4,493.7,821.4z"/>
	<path class="st9" d="M573.8,1015.3l1,2.7c0.6,1.6-0.2,3.4-1.8,4c-0.4,0.1-0.7,0.2-1.1,0.2c-1.2,0-2.4-0.8-2.9-2l-1-2.7
		c-7.8,2.7-15.8,4.4-23.8,4.7c-45.7,1.5-89.3-39.3-105.1-55.8c14.7,40.7,53.7,69.8,99.3,69.8c44,0,81.7-27,97.6-65.4
		C627.5,979.6,602.6,1003.4,573.8,1015.3z"/>
	<path d="M571.9,1022.2c0.4,0,0.7-0.1,1.1-0.2c1.6-0.6,2.4-2.4,1.8-4l-1-2.7l-8.3-21.9c-0.6-1.6-2.4-2.4-4-1.8
		c-1.6,0.6-2.4,2.4-1.8,4l8.3,21.9l1,2.7C569.5,1021.4,570.7,1022.2,571.9,1022.2z"/>
	<path d="M538.4,817.6c-44.2,0-82.5,25.5-101.1,62.5c-7.6,15.2-11.9,32.4-11.9,50.5c0,62.3,50.7,113,113,113
		c62.3,0,113-50.7,113-113c0-19.1-4.8-37.2-13.2-53C619.2,842,581.6,817.6,538.4,817.6z M636,970.8c-15.8,38.3-53.6,65.4-97.6,65.4
		c-45.7,0-84.7-29.2-99.3-69.8c-4-11.2-6.2-23.2-6.2-35.7c0-58.2,47.4-105.6,105.6-105.6c58.2,0,105.6,47.4,105.6,105.6
		C644,944.9,641.1,958.4,636,970.8z"/>
	<path class="st8" d="M448.5,543.4c-13.7-1.1-13.1-2.5-29.9-2c-16.9,0.4-26.5,8.1-33.7,7.5c-5.7-0.4-12.6-1.4-16.1-4.2
		c-0.4,1.9-0.4,3.7,0.1,5.1c0.4,1.1,1.2,2.7,4.2,3.7c9.5,3.1,22.2-0.8,32.5-3.9c6.4-1.9,11.9-3.6,16.2-3.6c4.7,0,12.1,1.5,19.9,3
		c7.8,1.5,21,4.1,23.6,2.9c0.3-0.1,1.2-1.3,1.5-4.3c0.2-1.7,0.2-3.7-0.1-5.7C462.7,542.9,456.4,544.1,448.5,543.4z"/>
	<path class="st10" d="M409.5,590.4c-3.5-0.1-9.5-1-15-2.9c0.7,2.1,1.6,3.5,2.5,4.1c5.9,3.7,14.5,4.5,19.1,3.1
		c1.7-0.5,2.2-1.1,2.3-1.2c0-0.2,0.1-0.4,0.1-0.6c0-0.2,0-0.4,0-0.6c0-1.1-0.2-5.6-0.5-11.6C415.6,585.2,412.1,590.4,409.5,590.4z"
		/>
	<path class="st10" d="M437.9,588.1c-5-0.9-9.4-4.7-12.4-8.1c0.3,5.2,0.4,8.9,0.5,11.1c4.5,2.4,18.1,5.6,20.2,3.5
		c0.6-1.6,1.3-4.7,2.1-8.6C445.5,587.6,441.9,588.9,437.9,588.1z"/>
	<path d="M361.8,552c0.9,2.9,3.2,6.7,8.9,8.6c3.3,1.1,6.7,1.5,10.2,1.5c1.2,0,2.4-0.1,3.7-0.2c-0.4,11.8,0.3,30.9,8.4,36
		c5.4,3.4,12.1,4.8,18,4.8c3,0,5.8-0.4,8-1.2c2.4-0.8,4-2,5-3.2c1.9,0.8,4.3,1.7,7.5,2.6c4.2,1.1,8,1.7,11.1,1.7
		c5.6,0,9.2-1.8,10.5-5.4c1.5-4,3.9-15.2,5.2-26.2c0.6-4.7,0.8-8.5,0.9-11.6c4.3,0.4,7.4,0.1,9.5-1c3-1.6,4.8-5.1,5.4-10
		c0.9-7.9-1.5-19.4-7.9-25.2c-7.8-7-19.4-10.3-26.5-11.1c0-0.5,0.1-0.9,0.1-1.4c0-12-9-21.8-20-21.8c-11.1,0-20,9.8-20,21.8
		c0,0.4,0,0.7,0,1.1c-6,1.1-23.1,5-30.3,14.4C365.4,531.7,359.1,543.3,361.8,552z M446.2,594.6c-2.1,2.1-15.7-1.1-20.2-3.5
		c0-2.2-0.2-5.9-0.5-11.1c-0.3-6.5-0.9-15.4-1.6-26.5c4.2,0.4,10.3,1.6,16.2,2.8c4.3,0.9,8.2,1.6,11.6,2.2c0,3.2-0.3,7.5-1.1,13.4
		c-0.7,4.9-1.5,10-2.4,14.1C447.5,589.9,446.7,593,446.2,594.6z M418.6,592.3c0,0.2,0,0.4,0,0.6c0,0.2-0.1,0.5-0.1,0.6
		c-0.1,0.1-0.6,0.7-2.3,1.2c-4.6,1.4-13.3,0.6-19.1-3.1c-0.9-0.6-1.8-2-2.5-4.1c-1.8-5.2-2.9-14.7-2.4-26.6
		c5.4-1.1,10.7-2.7,15.6-4.1c3.2-1,6.2-1.9,8.9-2.5c0.5,8.8,1.1,18.9,1.6,26.5C418.4,586.7,418.6,591.2,418.6,592.3z M375.4,530.8
		c5.1-6.7,19.1-10.4,25.9-11.7c3,7.9,10.2,13.5,18.5,13.5c8.2,0,15.3-5.4,18.4-13.1c5.7,0.4,16.5,3.4,23.1,9.4c3,2.7,4.9,8,5.4,13
		c0.2,2,0.3,4,0.1,5.7c-0.4,3.1-1.3,4.2-1.5,4.3c-2.6,1.2-15.8-1.4-23.6-2.9c-7.9-1.5-15.3-3-19.9-3c-4.3,0-9.8,1.7-16.2,3.6
		c-10.3,3.1-23,7-32.5,3.9c-3-1-3.8-2.6-4.2-3.7c-0.4-1.4-0.4-3.2-0.1-5.1C369.7,540.2,372.4,534.7,375.4,530.8z"/>
	<path class="st11" d="M569.6,439.4c-54.6,0.1-89.8-34.3-104.7-52.9c14.3,41.9,54,72.1,100.7,72.1c46.8,0,86.6-30.3,100.8-72.4
		C652.8,405.5,621.6,439.3,569.6,439.4z"/>
	<path d="M565.6,466c62.8,0,113.8-51.1,113.8-113.8s-51.1-113.8-113.8-113.8s-113.8,51.1-113.8,113.8S502.8,466,565.6,466z
		 M565.6,245.8c58.7,0,106.4,47.7,106.4,106.4c0,11.9-2,23.3-5.6,34c-14.2,42-54,72.4-100.8,72.4c-46.7,0-86.4-30.2-100.7-72.1
		c-3.7-10.8-5.7-22.3-5.7-34.3C459.1,293.5,506.9,245.8,565.6,245.8z"/>
	<path class="st11" d="M265,452c-39.8,0.3-75-23.7-90.3-36c16.8,31.8,50.2,53.6,88.6,53.6c41.3,0,76.9-25.2,92.2-61
		C341.1,423.5,308.3,451.6,265,452z"/>
	<path d="M263.3,477c59.3,0,107.5-48.2,107.5-107.5s-48.2-107.5-107.5-107.5s-107.5,48.2-107.5,107.5S204,477,263.3,477z
		 M263.3,269.3c55.2,0,100.1,44.9,100.1,100.1c0,13.9-2.8,27.1-8,39.1c-15.3,35.8-50.8,61-92.2,61c-38.4,0-71.8-21.8-88.6-53.6
		c-7.3-13.9-11.5-29.7-11.5-46.5C163.2,314.2,208.1,269.3,263.3,269.3z"/>
</g>
</svg>
